<?xml version="1.0" encoding="UTF-8"?>
<svg xmlns="http://www.w3.org/2000/svg" xmlns:xlink="http://www.w3.org/1999/xlink" width="159px" height="150px" viewBox="0 0 159 150" version="1.1">
<defs>
<filter id="alpha" filterUnits="objectBoundingBox" x="0%" y="0%" width="100%" height="100%">
  <feColorMatrix type="matrix" in="SourceGraphic" values="0 0 0 0 1 0 0 0 0 1 0 0 0 0 1 0 0 0 1 0"/>
</filter>
<mask id="mask0">
  <g filter="url(#alpha)">
<rect x="0" y="0" width="159" height="150" style="fill:rgb(0%,0%,0%);fill-opacity:0.956863;stroke:none;"/>
  </g>
</mask>
<clipPath id="clip1">
  <rect x="0" y="0" width="159" height="150"/>
</clipPath>
<g id="surface5" clip-path="url(#clip1)">
<path style=" stroke:none;fill-rule:evenodd;fill:rgb(0%,0%,0%);fill-opacity:1;" d="M 54.167969 -0.390625 C 70.796875 -0.390625 87.425781 -0.390625 104.050781 -0.390625 C 134.410156 11.292969 152.597656 33.167969 158.609375 65.234375 C 158.609375 72.785156 158.609375 80.339844 158.609375 87.890625 C 153.605469 116.054688 138.539062 136.628906 113.40625 149.609375 C 108.46875 149.609375 103.53125 149.609375 98.59375 149.609375 C 98.855469 139.164062 98.464844 128.746094 97.425781 118.359375 C 96.191406 116.140625 94.761719 114.058594 93.140625 112.109375 C 98.339844 110.804688 103.539062 109.503906 108.726562 108.203125 C 111.027344 108.5 113.105469 107.589844 114.964844 105.46875 C 114.785156 105.15625 114.523438 105.027344 114.183594 105.078125 C 121.519531 100.964844 126.0625 94.714844 127.824219 86.328125 C 129.714844 77.0625 129.324219 67.945312 126.65625 58.984375 C 126.820312 57.671875 126.300781 56.890625 125.09375 56.640625 C 123.898438 54.628906 122.597656 52.675781 121.199219 50.78125 C 123.292969 43.914062 123.035156 37.140625 120.417969 30.46875 C 117.796875 30.210938 115.199219 30.472656 112.625 31.25 C 107.824219 33.523438 103.148438 36 98.59375 38.671875 C 85.605469 34.503906 72.613281 34.503906 59.625 38.671875 C 53.492188 34.621094 46.867188 31.757812 39.75 30.078125 C 38.886719 30.144531 38.109375 30.40625 37.410156 30.859375 C 35.144531 37.476562 35.015625 44.117188 37.023438 50.78125 C 29.613281 59.789062 27.144531 70.074219 29.617188 81.640625 C 31.257812 95.003906 38.402344 103.988281 51.050781 108.59375 C 55.75 109.71875 60.425781 110.890625 65.082031 112.109375 C 62.019531 115.117188 60.203125 118.765625 59.625 123.046875 C 52.855469 126.480469 46.363281 126.089844 40.140625 121.875 C 37.300781 117.46875 33.921875 113.5625 30.007812 110.15625 C 28.011719 109.265625 25.933594 108.613281 23.773438 108.203125 C 22.601562 108.167969 21.824219 108.6875 21.433594 109.765625 C 23.539062 111.671875 25.746094 113.496094 28.058594 115.234375 C 30.792969 119.148438 33.128906 123.316406 35.074219 127.734375 C 37.949219 130.804688 41.453125 132.757812 45.59375 133.59375 C 50.054688 134.210938 54.46875 134.078125 58.84375 133.203125 C 60.363281 138.664062 60.621094 144.132812 59.625 149.609375 C 54.6875 149.609375 49.753906 149.609375 44.816406 149.609375 C 19.035156 135.976562 3.964844 114.621094 -0.390625 85.546875 C -0.390625 79.296875 -0.390625 73.046875 -0.390625 66.796875 C 4.929688 33.863281 23.113281 11.46875 54.167969 -0.390625 Z M 54.167969 -0.390625 "/>
</g>
<mask id="mask1">
  <g filter="url(#alpha)">
<rect x="0" y="0" width="159" height="150" style="fill:rgb(0%,0%,0%);fill-opacity:0.360784;stroke:none;"/>
  </g>
</mask>
<clipPath id="clip2">
  <rect x="0" y="0" width="159" height="150"/>
</clipPath>
<g id="surface8" clip-path="url(#clip2)">
<path style=" stroke:none;fill-rule:evenodd;fill:rgb(3.921569%,3.921569%,3.921569%);fill-opacity:1;" d="M 125.09375 56.640625 C 126.300781 56.890625 126.820312 57.671875 126.65625 58.984375 C 125.953125 58.367188 125.433594 57.585938 125.09375 56.640625 Z M 125.09375 56.640625 "/>
</g>
<mask id="mask2">
  <g filter="url(#alpha)">
<rect x="0" y="0" width="159" height="150" style="fill:rgb(0%,0%,0%);fill-opacity:0.52549;stroke:none;"/>
  </g>
</mask>
<clipPath id="clip3">
  <rect x="0" y="0" width="159" height="150"/>
</clipPath>
<g id="surface11" clip-path="url(#clip3)">
<path style=" stroke:none;fill-rule:evenodd;fill:rgb(3.921569%,3.921569%,3.921569%);fill-opacity:1;" d="M 114.183594 105.078125 C 114.523438 105.027344 114.785156 105.15625 114.964844 105.46875 C 113.105469 107.589844 111.027344 108.5 108.726562 108.203125 C 110.390625 106.976562 112.210938 105.933594 114.183594 105.078125 Z M 114.183594 105.078125 "/>
</g>
</defs>
<g id="surface1">
<use xlink:href="#surface5" mask="url(#mask0)"/>
<use xlink:href="#surface8" mask="url(#mask1)"/>
<use xlink:href="#surface11" mask="url(#mask2)"/>
</g>
</svg>
