<?xml version="1.0" encoding="UTF-8"?>
<!DOCTYPE svg PUBLIC "-//W3C//DTD SVG 1.1//EN" "http://www.w3.org/Graphics/SVG/1.1/DTD/svg11.dtd">
<svg xmlns="http://www.w3.org/2000/svg" version="1.1" width="225px" height="225px" style="shape-rendering:geometricPrecision; text-rendering:geometricPrecision; image-rendering:optimizeQuality; fill-rule:evenodd; clip-rule:evenodd" xmlns:xlink="http://www.w3.org/1999/xlink">
<g><path style="opacity:1" fill="#eb4b58" d="M 118.5,49.5 C 120.017,51.9358 119.684,54.1024 117.5,56C 114.635,56.1829 111.969,56.6829 109.5,57.5C 106.86,58.4485 104.193,59.4485 101.5,60.5C 102.502,58.9891 103.169,57.3224 103.5,55.5C 106.206,55.4249 108.873,55.0916 111.5,54.5C 111.034,52.7988 111.034,51.2988 111.5,50C 109.866,49.5065 108.199,49.3398 106.5,49.5C 107.777,48.1024 109.443,47.4357 111.5,47.5C 113.932,47.8864 116.266,48.5531 118.5,49.5 Z"/></g>
<g><path style="opacity:1" fill="#de7271" d="M 120.5,49.5 C 119.833,49.5 119.167,49.5 118.5,49.5C 116.266,48.5531 113.932,47.8864 111.5,47.5C 109.443,47.4357 107.777,48.1024 106.5,49.5C 103.792,51.2504 100.958,52.9171 98,54.5C 96.2341,55.2335 94.4008,55.5668 92.5,55.5C 96.9365,52.4411 101.603,49.6078 106.5,47C 109.833,46.3333 113.167,46.3333 116.5,47C 118.32,47.2004 119.653,48.0337 120.5,49.5 Z"/></g>
<g><path style="opacity:1" fill="#f75147" d="M 106.5,49.5 C 108.199,49.3398 109.866,49.5065 111.5,50C 111.034,51.2988 111.034,52.7988 111.5,54.5C 108.873,55.0916 106.206,55.4249 103.5,55.5C 103.169,57.3224 102.502,58.9891 101.5,60.5C 100.089,62.539 98.089,63.539 95.5,63.5C 90.0388,65.7306 85.0388,68.7306 80.5,72.5C 80.1667,72.5 79.8333,72.5 79.5,72.5C 70.2871,71.3854 70.2871,69.7187 79.5,67.5C 80.9344,66.4116 81.9344,65.0783 82.5,63.5C 86.2923,61.2878 89.6257,58.6211 92.5,55.5C 94.4008,55.5668 96.2341,55.2335 98,54.5C 100.958,52.9171 103.792,51.2504 106.5,49.5 Z"/></g>
<g><path style="opacity:0.886" fill="#b0759d" d="M 131.5,55.5 C 136.5,57.6643 141.167,60.331 145.5,63.5C 144.167,63.5 142.833,63.5 141.5,63.5C 138.405,60.8052 135.071,58.4719 131.5,56.5C 131.5,56.1667 131.5,55.8333 131.5,55.5 Z"/></g>
<g><path style="opacity:1" fill="#0c090a" d="M 109.5,57.5 C 111.527,57.3379 113.527,57.5045 115.5,58C 119.402,60.1189 123.402,61.9523 127.5,63.5C 133.495,68.5028 140.162,72.5028 147.5,75.5C 149.808,76.7928 152.142,78.1261 154.5,79.5C 155.833,81.5 157.5,83.1667 159.5,84.5C 159.461,85.7562 159.961,86.7562 161,87.5C 161.5,103.163 161.667,118.83 161.5,134.5C 161.5,134.833 161.5,135.167 161.5,135.5C 160.121,138.344 158.121,140.844 155.5,143C 151.571,145.788 147.571,148.288 143.5,150.5C 143.5,151.167 143.167,151.5 142.5,151.5C 135.297,155.264 128.297,159.264 121.5,163.5C 119.91,163.628 118.577,164.295 117.5,165.5C 114.232,166.487 110.898,166.82 107.5,166.5C 104.028,164.262 100.362,162.262 96.5,160.5C 96.1667,160.5 95.8333,160.5 95.5,160.5C 87.1955,155.01 78.5288,150.01 69.5,145.5C 69.1667,144.5 68.5,143.833 67.5,143.5C 65.7446,140.991 64.2446,138.324 63,135.5C 62.5001,120.504 62.3334,105.504 62.5,90.5C 62.7553,87.9837 63.5886,85.6504 65,83.5C 70.0178,79.9699 74.8511,76.3032 79.5,72.5C 79.8333,72.5 80.1667,72.5 80.5,72.5C 86.2713,70.717 91.2713,67.717 95.5,63.5C 98.089,63.539 100.089,62.539 101.5,60.5C 104.193,59.4485 106.86,58.4485 109.5,57.5 Z M 120.5,72.5 C 120.973,73.9063 121.973,74.573 123.5,74.5C 124.514,75.6737 125.847,76.3404 127.5,76.5C 127.973,77.9063 128.973,78.573 130.5,78.5C 130.842,79.3382 131.508,79.6716 132.5,79.5C 132.973,80.9063 133.973,81.573 135.5,81.5C 138.632,83.0461 141.298,85.0461 143.5,87.5C 141.973,87.427 140.973,88.0937 140.5,89.5C 139.508,89.3284 138.842,89.6618 138.5,90.5C 136.877,89.5092 135.877,90.1759 135.5,92.5C 127.319,96.1746 119.485,100.508 112,105.5C 101.554,99.3617 91.054,93.3617 80.5,87.5C 80.8333,86.8333 81.1667,86.1667 81.5,85.5C 91.5747,79.7116 101.741,74.0449 112,68.5C 114.74,70.0841 117.573,71.4175 120.5,72.5 Z M 148.5,97.5 C 150.48,109.455 151.146,121.788 150.5,134.5C 142.345,138.812 134.678,143.146 127.5,147.5C 125.973,147.427 124.973,148.094 124.5,149.5C 122.534,150.441 120.534,151.441 118.5,152.5C 118.167,152.167 117.833,151.833 117.5,151.5C 118.813,139.833 118.813,128.167 117.5,116.5C 118.5,116.167 119.167,115.5 119.5,114.5C 121.434,113.89 123.101,112.89 124.5,111.5C 126.434,110.89 128.101,109.89 129.5,108.5C 136.005,105.083 142.338,101.416 148.5,97.5 Z"/></g>
<g><path style="opacity:1" fill="#c95175" d="M 118.5,49.5 C 119.167,49.5 119.833,49.5 120.5,49.5C 124.655,50.7417 128.322,52.7417 131.5,55.5C 131.5,55.8333 131.5,56.1667 131.5,56.5C 128.459,56.4056 126.793,57.9056 126.5,61C 127.252,61.6708 127.586,62.5041 127.5,63.5C 123.402,61.9523 119.402,60.1189 115.5,58C 113.527,57.5045 111.527,57.3379 109.5,57.5C 111.969,56.6829 114.635,56.1829 117.5,56C 119.684,54.1024 120.017,51.9358 118.5,49.5 Z"/></g>
<g><path style="opacity:1" fill="#e17c6e" d="M 92.5,55.5 C 89.6257,58.6211 86.2923,61.2878 82.5,63.5C 77.6234,65.522 73.1234,68.1887 69,71.5C 67.2341,72.2335 65.4008,72.5668 63.5,72.5C 72.6656,66.08 82.3323,60.4134 92.5,55.5 Z"/></g>
<g><path style="opacity:1" fill="#b24a8d" d="M 131.5,56.5 C 135.071,58.4719 138.405,60.8052 141.5,63.5C 138.32,63.1762 137.153,64.5096 138,67.5C 140.408,69.9561 143.241,71.7894 146.5,73C 147.252,73.6708 147.586,74.5041 147.5,75.5C 140.162,72.5028 133.495,68.5028 127.5,63.5C 127.586,62.5041 127.252,61.6708 126.5,61C 126.793,57.9056 128.459,56.4056 131.5,56.5 Z"/></g>
<g><path style="opacity:1" fill="#af82c2" d="M 145.5,63.5 C 150.5,65.6643 155.167,68.331 159.5,71.5C 156.316,70.6663 153.316,69.3329 150.5,67.5C 148.111,67.0212 146.444,65.6879 145.5,63.5 Z"/></g>
<g><path style="opacity:1" fill="#d05c55" d="M 95.5,63.5 C 91.2713,67.717 86.2713,70.717 80.5,72.5C 85.0388,68.7306 90.0388,65.7306 95.5,63.5 Z"/></g>
<g><path style="opacity:1" fill="#9a49af" d="M 141.5,63.5 C 142.833,63.5 144.167,63.5 145.5,63.5C 146.444,65.6879 148.111,67.0212 150.5,67.5C 149.216,72.3158 150.55,76.3158 154.5,79.5C 152.142,78.1261 149.808,76.7928 147.5,75.5C 147.586,74.5041 147.252,73.6708 146.5,73C 143.241,71.7894 140.408,69.9561 138,67.5C 137.153,64.5096 138.32,63.1762 141.5,63.5 Z"/></g>
<g><path style="opacity:0.392" fill="#9c9c9c" d="M 120.5,72.5 C 122.027,72.427 123.027,73.0937 123.5,74.5C 121.973,74.573 120.973,73.9063 120.5,72.5 Z"/></g>
<g><path style="opacity:1" fill="#8c4ec9" d="M 150.5,67.5 C 153.316,69.3329 156.316,70.6663 159.5,71.5C 161.853,72.3403 163.853,73.6736 165.5,75.5C 162.129,74.4243 158.796,73.4243 155.5,72.5C 155.298,74.9496 155.631,77.283 156.5,79.5C 155.833,79.5 155.167,79.5 154.5,79.5C 150.55,76.3158 149.216,72.3158 150.5,67.5 Z"/></g>
<g><path style="opacity:0.298" fill="#a9a9ab" d="M 127.5,76.5 C 129.027,76.427 130.027,77.0937 130.5,78.5C 128.973,78.573 127.973,77.9063 127.5,76.5 Z"/></g>
<g><path style="opacity:1" fill="#42266e" d="M 154.5,79.5 C 155.167,79.5 155.833,79.5 156.5,79.5C 157.925,80.922 158.925,82.5887 159.5,84.5C 157.5,83.1667 155.833,81.5 154.5,79.5 Z"/></g>
<g><path style="opacity:1" fill="#7c4add" d="M 165.5,75.5 C 167.262,76.2623 168.262,77.5956 168.5,79.5C 166.989,78.4975 165.322,77.8308 163.5,77.5C 164.123,80.0003 164.457,82.5003 164.5,85C 163.584,85.2784 162.918,85.7784 162.5,86.5C 161.5,85.8333 160.5,85.1667 159.5,84.5C 158.925,82.5887 157.925,80.922 156.5,79.5C 155.631,77.283 155.298,74.9496 155.5,72.5C 158.796,73.4243 162.129,74.4243 165.5,75.5 Z"/></g>
<g><path style="opacity:0.153" fill="#bdbdbe" d="M 132.5,79.5 C 134.027,79.427 135.027,80.0937 135.5,81.5C 133.973,81.573 132.973,80.9063 132.5,79.5 Z"/></g>
<g><path style="opacity:0.714" fill="#797879" d="M 81.5,85.5 C 81.1667,86.1667 80.8333,86.8333 80.5,87.5C 79.6236,87.6309 78.9569,87.2975 78.5,86.5C 79.325,85.6143 80.325,85.281 81.5,85.5 Z"/></g>
<g><path style="opacity:0.796" fill="#818181" d="M 143.5,87.5 C 143.027,88.9063 142.027,89.573 140.5,89.5C 140.973,88.0937 141.973,87.427 143.5,87.5 Z"/></g>
<g><path style="opacity:0.8" fill="#7e7e7e" d="M 138.5,90.5 C 138.027,91.9063 137.027,92.573 135.5,92.5C 135.877,90.1759 136.877,89.5092 138.5,90.5 Z"/></g>
<g><path style="opacity:1" fill="#f8634a" d="M 82.5,63.5 C 81.9344,65.0783 80.9344,66.4116 79.5,67.5C 70.2871,69.7187 70.2871,71.3854 79.5,72.5C 74.8511,76.3032 70.0178,79.9699 65,83.5C 63.5886,85.6504 62.7553,87.9837 62.5,90.5C 61.3388,105.661 61.1721,120.994 62,136.5C 62.6667,138.5 63.3333,140.5 64,142.5C 65.0113,143.337 66.1779,143.67 67.5,143.5C 68.5,143.833 69.1667,144.5 69.5,145.5C 67.4012,144.769 65.4012,144.769 63.5,145.5C 64.09,146.799 65.09,147.632 66.5,148C 65.944,148.383 65.6107,148.883 65.5,149.5C 62.3181,148.97 59.3181,147.97 56.5,146.5C 56.3215,143.784 55.8215,141.117 55,138.5C 54.3333,120.833 54.3333,103.167 55,85.5C 56.147,83.2688 57.147,80.9355 58,78.5C 60.7437,77.2596 62.577,75.2596 63.5,72.5C 65.4008,72.5668 67.2341,72.2335 69,71.5C 73.1234,68.1887 77.6234,65.522 82.5,63.5 Z"/></g>
<g><path style="opacity:1" fill="#b66156" d="M 62.5,90.5 C 62.3334,105.504 62.5001,120.504 63,135.5C 64.2446,138.324 65.7446,140.991 67.5,143.5C 66.1779,143.67 65.0113,143.337 64,142.5C 63.3333,140.5 62.6667,138.5 62,136.5C 61.1721,120.994 61.3388,105.661 62.5,90.5 Z"/></g>
<g><path style="opacity:1" fill="#5f48bb" d="M 159.5,84.5 C 160.5,85.1667 161.5,85.8333 162.5,86.5C 162.5,102.167 162.5,117.833 162.5,133.5C 162.5,134.167 162.167,134.5 161.5,134.5C 161.667,118.83 161.5,103.163 161,87.5C 159.961,86.7562 159.461,85.7562 159.5,84.5 Z"/></g>
<g><path style="opacity:0.553" fill="#717171" d="M 148.5,97.5 C 149.209,96.596 150.209,96.2627 151.5,96.5C 151.829,109.344 151.495,122.011 150.5,134.5C 151.146,121.788 150.48,109.455 148.5,97.5 Z"/></g>
<g><path style="opacity:1" fill="#595959" d="M 129.5,108.5 C 128.101,109.89 126.434,110.89 124.5,111.5C 125.09,110.234 125.59,108.901 126,107.5C 127.011,108.337 128.178,108.67 129.5,108.5 Z"/></g>
<g><path style="opacity:1" fill="#6749ed" d="M 168.5,79.5 C 169.791,99.6465 169.791,119.646 168.5,139.5C 168.817,124.118 168.484,108.785 167.5,93.5C 166.726,92.2888 165.893,92.2888 165,93.5C 164.055,106.982 163.222,120.315 162.5,133.5C 162.5,117.833 162.5,102.167 162.5,86.5C 162.918,85.7784 163.584,85.2784 164.5,85C 164.457,82.5003 164.123,80.0003 163.5,77.5C 165.322,77.8308 166.989,78.4975 168.5,79.5 Z"/></g>
<g><path style="opacity:1" fill="#6548f8" d="M 168.5,139.5 C 168.25,140.922 167.417,141.922 166,142.5C 165.51,143.793 165.343,145.127 165.5,146.5C 163.952,146.821 163.285,147.821 163.5,149.5C 161.167,150.167 158.833,150.833 156.5,151.5C 154.833,151.5 153.167,151.5 151.5,151.5C 151.5,150.5 151.5,149.5 151.5,148.5C 155.428,146.408 158.594,143.408 161,139.5C 161.49,138.207 161.657,136.873 161.5,135.5C 161.5,135.167 161.5,134.833 161.5,134.5C 162.167,134.5 162.5,134.167 162.5,133.5C 163.222,120.315 164.055,106.982 165,93.5C 165.893,92.2888 166.726,92.2888 167.5,93.5C 168.484,108.785 168.817,124.118 168.5,139.5 Z"/></g>
<g><path style="opacity:1" fill="#7966dd" d="M 168.5,79.5 C 169.558,80.6002 170.392,81.9336 171,83.5C 171.667,102.167 171.667,120.833 171,139.5C 170.59,140.901 170.09,142.234 169.5,143.5C 168.094,143.973 167.427,144.973 167.5,146.5C 166.833,146.5 166.167,146.5 165.5,146.5C 165.343,145.127 165.51,143.793 166,142.5C 167.417,141.922 168.25,140.922 168.5,139.5C 169.791,119.646 169.791,99.6465 168.5,79.5 Z"/></g>
<g><path style="opacity:1" fill="#e7836f" d="M 63.5,72.5 C 62.577,75.2596 60.7437,77.2596 58,78.5C 57.147,80.9355 56.147,83.2688 55,85.5C 54.3333,103.167 54.3333,120.833 55,138.5C 55.8215,141.117 56.3215,143.784 56.5,146.5C 59.3181,147.97 62.3181,148.97 65.5,149.5C 66.3092,151.028 66.9759,152.694 67.5,154.5C 60.3177,152.819 55.4844,148.486 53,141.5C 52.3333,121.833 52.3333,102.167 53,82.5C 54.746,77.2524 58.246,73.9191 63.5,72.5 Z"/></g>
<g><path style="opacity:0.098" fill="#c2c2c2" d="M 119.5,114.5 C 119.167,115.5 118.5,116.167 117.5,116.5C 117.5,115.167 118.167,114.5 119.5,114.5 Z"/></g>
<g><path style="opacity:0.141" fill="#c3b5f6" d="M 169.5,143.5 C 169.573,145.027 168.906,146.027 167.5,146.5C 167.427,144.973 168.094,143.973 169.5,143.5 Z"/></g>
<g><path style="opacity:1" fill="#f3554a" d="M 69.5,145.5 C 78.5288,150.01 87.1955,155.01 95.5,160.5C 95.6386,163.588 96.6386,166.255 98.5,168.5C 96.8333,168.5 95.1667,168.5 93.5,168.5C 90.3492,166.417 87.3492,164.084 84.5,161.5C 82.9547,160.548 81.288,160.215 79.5,160.5C 78.4324,159.566 77.099,159.232 75.5,159.5C 73.8665,156.203 71.1999,154.536 67.5,154.5C 66.9759,152.694 66.3092,151.028 65.5,149.5C 65.6107,148.883 65.944,148.383 66.5,148C 65.09,147.632 64.09,146.799 63.5,145.5C 65.4012,144.769 67.4012,144.769 69.5,145.5 Z"/></g>
<g><path style="opacity:0.58" fill="#9f9f9f" d="M 127.5,147.5 C 127.027,148.906 126.027,149.573 124.5,149.5C 124.973,148.094 125.973,147.427 127.5,147.5 Z"/></g>
<g><path style="opacity:1" fill="#5b3da3" d="M 161.5,135.5 C 161.657,136.873 161.49,138.207 161,139.5C 158.594,143.408 155.428,146.408 151.5,148.5C 150.395,149.6 149.062,150.267 147.5,150.5C 146.368,149.646 145.035,149.646 143.5,150.5C 147.571,148.288 151.571,145.788 155.5,143C 158.121,140.844 160.121,138.344 161.5,135.5 Z"/></g>
<g><path style="opacity:1" fill="#8667ce" d="M 165.5,146.5 C 166.167,146.5 166.833,146.5 167.5,146.5C 166.71,147.794 165.71,148.961 164.5,150C 157.446,153.858 150.446,157.691 143.5,161.5C 144.1,160.1 145.1,159.1 146.5,158.5C 147.209,157.596 148.209,157.263 149.5,157.5C 149.5,156.5 149.5,155.5 149.5,154.5C 151.124,154.64 152.29,153.973 153,152.5C 154.579,153.8 155.745,153.466 156.5,151.5C 158.833,150.833 161.167,150.167 163.5,149.5C 163.285,147.821 163.952,146.821 165.5,146.5 Z"/></g>
<g><path style="opacity:1" fill="#ea897f" d="M 67.5,154.5 C 71.1999,154.536 73.8665,156.203 75.5,159.5C 72.4887,158.331 69.822,156.664 67.5,154.5 Z"/></g>
<g><path style="opacity:1" fill="#8048d8" d="M 151.5,148.5 C 151.5,149.5 151.5,150.5 151.5,151.5C 153.167,151.5 154.833,151.5 156.5,151.5C 155.745,153.466 154.579,153.8 153,152.5C 152.29,153.973 151.124,154.64 149.5,154.5C 149.5,155.5 149.5,156.5 149.5,157.5C 148.209,157.263 147.209,157.596 146.5,158.5C 145.448,158.649 144.448,158.483 143.5,158C 144.082,155.026 145.415,152.526 147.5,150.5C 149.062,150.267 150.395,149.6 151.5,148.5 Z"/></g>
<g><path style="opacity:1" fill="#9348c3" d="M 147.5,150.5 C 145.415,152.526 144.082,155.026 143.5,158C 144.448,158.483 145.448,158.649 146.5,158.5C 145.1,159.1 144.1,160.1 143.5,161.5C 140.422,161.62 137.755,162.62 135.5,164.5C 134.167,164.5 132.833,164.5 131.5,164.5C 131.343,163.127 131.51,161.793 132,160.5C 135.483,157.236 138.983,154.236 142.5,151.5C 143.167,151.5 143.5,151.167 143.5,150.5C 145.035,149.646 146.368,149.646 147.5,150.5 Z"/></g>
<g><path style="opacity:0.902" fill="#e59797" d="M 75.5,159.5 C 77.099,159.232 78.4324,159.566 79.5,160.5C 81.6616,161.128 83.3282,162.461 84.5,164.5C 81.1443,163.389 78.1443,161.723 75.5,159.5 Z"/></g>
<g><path style="opacity:1" fill="#e26a64" d="M 79.5,160.5 C 81.288,160.215 82.9547,160.548 84.5,161.5C 87.3492,164.084 90.3492,166.417 93.5,168.5C 93.5,168.833 93.5,169.167 93.5,169.5C 90.2402,168.226 87.2402,166.56 84.5,164.5C 83.3282,162.461 81.6616,161.128 79.5,160.5 Z"/></g>
<g><path style="opacity:1" fill="#9d6bae" d="M 143.5,161.5 C 138.784,164.863 133.784,167.863 128.5,170.5C 128.414,169.504 128.748,168.671 129.5,168C 131.432,166.541 133.432,165.375 135.5,164.5C 137.755,162.62 140.422,161.62 143.5,161.5 Z"/></g>
<g><path style="opacity:1" fill="#a449a1" d="M 142.5,151.5 C 138.983,154.236 135.483,157.236 132,160.5C 131.51,161.793 131.343,163.127 131.5,164.5C 132.833,164.5 134.167,164.5 135.5,164.5C 133.432,165.375 131.432,166.541 129.5,168C 128.748,168.671 128.414,169.504 128.5,170.5C 126.833,170.5 125.167,170.5 123.5,170.5C 123.261,168.533 123.594,166.699 124.5,165C 123.263,164.768 122.263,164.268 121.5,163.5C 128.297,159.264 135.297,155.264 142.5,151.5 Z"/></g>
<g><path style="opacity:1" fill="#ea4761" d="M 95.5,160.5 C 95.8333,160.5 96.1667,160.5 96.5,160.5C 98.6716,162.945 101.338,164.945 104.5,166.5C 105.631,168.074 105.798,169.741 105,171.5C 104.275,172.059 103.442,172.392 102.5,172.5C 99.6443,170.956 96.6443,169.956 93.5,169.5C 93.5,169.167 93.5,168.833 93.5,168.5C 95.1667,168.5 96.8333,168.5 98.5,168.5C 96.6386,166.255 95.6386,163.588 95.5,160.5 Z"/></g>
<g><path style="opacity:1" fill="#b25492" d="M 121.5,163.5 C 122.263,164.268 123.263,164.768 124.5,165C 123.594,166.699 123.261,168.533 123.5,170.5C 125.167,170.5 126.833,170.5 128.5,170.5C 125.322,173.258 121.655,175.258 117.5,176.5C 118.622,173.527 119.289,170.694 119.5,168C 116.227,168.534 112.893,168.367 109.5,167.5C 108.508,167.672 107.842,167.338 107.5,166.5C 110.898,166.82 114.232,166.487 117.5,165.5C 118.577,164.295 119.91,163.628 121.5,163.5 Z"/></g>
<g><path style="opacity:1" fill="#ca4880" d="M 109.5,167.5 C 112.893,168.367 116.227,168.534 119.5,168C 119.289,170.694 118.622,173.527 117.5,176.5C 114.833,176.5 112.167,176.5 109.5,176.5C 109.5,173.5 109.5,170.5 109.5,167.5 Z"/></g>
<g><path style="opacity:1" fill="#cc5471" d="M 96.5,160.5 C 100.362,162.262 104.028,164.262 107.5,166.5C 107.842,167.338 108.508,167.672 109.5,167.5C 109.5,170.5 109.5,173.5 109.5,176.5C 112.167,176.5 114.833,176.5 117.5,176.5C 113.689,177.645 109.689,177.812 105.5,177C 101.268,174.725 97.2676,172.225 93.5,169.5C 96.6443,169.956 99.6443,170.956 102.5,172.5C 103.442,172.392 104.275,172.059 105,171.5C 105.798,169.741 105.631,168.074 104.5,166.5C 101.338,164.945 98.6716,162.945 96.5,160.5 Z"/></g>
</svg>
