<?xml version="1.0" encoding="UTF-8"?>
<!DOCTYPE svg PUBLIC "-//W3C//DTD SVG 1.1//EN" "http://www.w3.org/Graphics/SVG/1.1/DTD/svg11.dtd">
<svg xmlns="http://www.w3.org/2000/svg" version="1.1" width="266px" height="190px" style="shape-rendering:geometricPrecision; text-rendering:geometricPrecision; image-rendering:optimizeQuality; fill-rule:evenodd; clip-rule:evenodd" xmlns:xlink="http://www.w3.org/1999/xlink">
<g><path style="opacity:1" fill="#fd7161" d="M 132.5,24.5 C 141.525,24.1685 150.525,24.5018 159.5,25.5C 163.124,27.5025 166.79,29.5025 170.5,31.5C 171.298,33.0777 171.798,34.7444 172,36.5C 173.828,35.2475 175.661,35.2475 177.5,36.5C 179.519,44.5219 178.686,52.1886 175,59.5C 172.09,60.4503 170.923,62.4503 171.5,65.5C 169.664,67.588 167.331,68.9213 164.5,69.5C 153.865,70.4036 143.198,70.7369 132.5,70.5C 132.5,69.8333 132.5,69.1667 132.5,68.5C 132.5,53.8333 132.5,39.1667 132.5,24.5 Z"/></g>
<g><path style="opacity:1" fill="#f89585" d="M 106.5,23.5 C 114.827,22.8336 123.327,22.5002 132,22.5C 142.541,22.4122 153.041,22.9122 163.5,24C 170.249,25.9198 174.916,30.0864 177.5,36.5C 175.661,35.2475 173.828,35.2475 172,36.5C 171.798,34.7444 171.298,33.0777 170.5,31.5C 166.79,29.5025 163.124,27.5025 159.5,25.5C 150.525,24.5018 141.525,24.1685 132.5,24.5C 124.016,23.507 115.349,23.1736 106.5,23.5 Z"/></g>
<g><path style="opacity:1" fill="#dc572b" d="M 106.5,23.5 C 115.349,23.1736 124.016,23.507 132.5,24.5C 123.143,24.1684 113.81,24.5017 104.5,25.5C 103.624,26.2508 102.624,26.7508 101.5,27C 102.993,28.1562 102.826,28.9896 101,29.5C 99.8558,29.0889 98.6891,28.7556 97.5,28.5C 95.361,29.9771 93.0277,30.9771 90.5,31.5C 94.4428,26.1952 99.7761,23.5285 106.5,23.5 Z"/></g>
<g><path style="opacity:1" fill="#f24e1f" d="M 132.5,24.5 C 132.5,39.1667 132.5,53.8333 132.5,68.5C 121.828,68.6665 111.161,68.4998 100.5,68C 99.2412,67.0766 97.9079,66.2432 96.5,65.5C 96.7093,64.914 97.0426,64.414 97.5,64C 94.0992,64.266 92.4326,62.766 92.5,59.5C 91.325,59.719 90.325,59.3857 89.5,58.5C 89.0057,56.083 87.6723,54.4164 85.5,53.5C 84.2854,49.6992 84.2854,46.0326 85.5,42.5C 89.0169,39.7924 90.6835,36.1258 90.5,31.5C 93.0277,30.9771 95.361,29.9771 97.5,28.5C 98.6891,28.7556 99.8558,29.0889 101,29.5C 102.826,28.9896 102.993,28.1562 101.5,27C 102.624,26.7508 103.624,26.2508 104.5,25.5C 113.81,24.5017 123.143,24.1684 132.5,24.5 Z"/></g>
<g><path style="opacity:1" fill="#e3663c" d="M 90.5,31.5 C 90.6835,36.1258 89.0169,39.7924 85.5,42.5C 85.8369,38.164 87.5035,34.4974 90.5,31.5 Z"/></g>
<g><path style="opacity:1" fill="#ef9487" d="M 177.5,36.5 C 182.649,47.5785 180.649,57.2451 171.5,65.5C 170.923,62.4503 172.09,60.4503 175,59.5C 178.686,52.1886 179.519,44.5219 177.5,36.5 Z"/></g>
<g><path style="opacity:1" fill="#e45a3f" d="M 85.5,53.5 C 87.6723,54.4164 89.0057,56.083 89.5,58.5C 90.325,59.3857 91.325,59.719 92.5,59.5C 92.4326,62.766 94.0992,64.266 97.5,64C 97.0426,64.414 96.7093,64.914 96.5,65.5C 97.9079,66.2432 99.2412,67.0766 100.5,68C 111.161,68.4998 121.828,68.6665 132.5,68.5C 132.5,69.1667 132.5,69.8333 132.5,70.5C 122.5,70.5 112.5,70.5 102.5,70.5C 93.8372,67.8372 88.1705,62.1705 85.5,53.5 Z"/></g>
<g><path style="opacity:0.008" fill="#e6d8db" d="M 164.5,69.5 C 164.167,70.1667 163.833,70.8333 163.5,71.5C 156.985,71.0209 150.652,71.6876 144.5,73.5C 144.611,72.8826 144.944,72.3826 145.5,72C 141.179,71.501 136.846,71.3343 132.5,71.5C 132.5,71.1667 132.5,70.8333 132.5,70.5C 143.198,70.7369 153.865,70.4036 164.5,69.5 Z"/></g>
<g><path style="opacity:1" fill="#bb63ca" d="M 102.5,70.5 C 112.5,70.5 122.5,70.5 132.5,70.5C 132.5,70.8333 132.5,71.1667 132.5,71.5C 131.833,71.5 131.5,71.8333 131.5,72.5C 121.494,72.3335 111.494,72.5002 101.5,73C 97.4995,74.7102 93.8329,76.8769 90.5,79.5C 93.4627,75.0286 97.4627,72.0286 102.5,70.5 Z"/></g>
<g><path style="opacity:1" fill="#a159fe" d="M 131.5,72.5 C 131.5,87.1667 131.5,101.833 131.5,116.5C 120.833,116.5 110.167,116.5 99.5,116.5C 98.6143,112.963 96.281,111.296 92.5,111.5C 90.4131,110.415 89.0798,108.749 88.5,106.5C 86.6015,101.006 85.6015,95.3392 85.5,89.5C 85.5,89.1667 85.5,88.8333 85.5,88.5C 86.7608,86.7096 88.2608,85.0429 90,83.5C 90.49,82.2068 90.6567,80.8734 90.5,79.5C 93.8329,76.8769 97.4995,74.7102 101.5,73C 111.494,72.5002 121.494,72.3335 131.5,72.5 Z"/></g>
<g><path style="opacity:1" fill="#25bbfb" d="M 163.5,71.5 C 172.036,74.7005 177.37,80.7005 179.5,89.5C 179.635,94.9528 178.968,100.286 177.5,105.5C 168.259,119.309 156.259,122.142 141.5,114C 140.619,113.292 139.953,112.458 139.5,111.5C 139.5,109.833 139.5,108.167 139.5,106.5C 138.325,106.719 137.325,106.386 136.5,105.5C 135.437,102.915 134.103,100.582 132.5,98.5C 132.5,94.1667 132.5,89.8333 132.5,85.5C 135.473,80.5275 139.473,76.5275 144.5,73.5C 150.652,71.6876 156.985,71.0209 163.5,71.5 Z"/></g>
<g><path style="opacity:1" fill="#af80ea" d="M 90.5,79.5 C 90.6567,80.8734 90.49,82.2068 90,83.5C 88.2608,85.0429 86.7608,86.7096 85.5,88.5C 85.9399,84.7485 87.6066,81.7485 90.5,79.5 Z"/></g>
<g><path style="opacity:1" fill="#c39aee" d="M 85.5,89.5 C 85.6015,95.3392 86.6015,101.006 88.5,106.5C 86.6885,104.615 85.5218,102.281 85,99.5C 84.1925,95.9733 84.3592,92.6399 85.5,89.5 Z"/></g>
<g><path style="opacity:0.969" fill="#8ed7ec" d="M 179.5,89.5 C 181.075,95.0691 180.409,100.402 177.5,105.5C 178.968,100.286 179.635,94.9528 179.5,89.5 Z"/></g>
<g><path style="opacity:1" fill="#75c6eb" d="M 132.5,98.5 C 134.103,100.582 135.437,102.915 136.5,105.5C 137.325,106.386 138.325,106.719 139.5,106.5C 139.5,108.167 139.5,109.833 139.5,111.5C 136.785,108.786 134.451,105.786 132.5,102.5C 132.5,101.167 132.5,99.8333 132.5,98.5 Z"/></g>
<g><path style="opacity:1" fill="#a96eed" d="M 92.5,111.5 C 96.281,111.296 98.6143,112.963 99.5,116.5C 96.3257,115.99 93.9923,114.323 92.5,111.5 Z"/></g>
<g><path style="opacity:1" fill="#8966dd" d="M 132.5,71.5 C 132.5,76.1667 132.5,80.8333 132.5,85.5C 132.5,89.8333 132.5,94.1667 132.5,98.5C 132.5,99.8333 132.5,101.167 132.5,102.5C 132.5,107.5 132.5,112.5 132.5,117.5C 122.167,117.5 111.833,117.5 101.5,117.5C 100.508,117.672 99.8417,117.338 99.5,116.5C 110.167,116.5 120.833,116.5 131.5,116.5C 131.5,101.833 131.5,87.1667 131.5,72.5C 131.5,71.8333 131.833,71.5 132.5,71.5 Z"/></g>
<g><path style="opacity:1" fill="#59acb3" d="M 101.5,117.5 C 111.833,117.5 122.167,117.5 132.5,117.5C 132.5,118.167 132.5,118.833 132.5,119.5C 121.833,119.5 111.167,119.5 100.5,119.5C 100.833,118.833 101.167,118.167 101.5,117.5 Z"/></g>
<g><path style="opacity:1" fill="#0ccd82" d="M 131.5,148.5 C 131.5,148.833 131.5,149.167 131.5,149.5C 130.85,149.196 130.183,148.863 129.5,148.5C 128.702,150.078 128.202,151.744 128,153.5C 127.667,152.833 127.333,152.167 127,151.5C 126.51,152.793 126.343,154.127 126.5,155.5C 125.5,155.5 124.5,155.5 123.5,155.5C 123.5,156.833 123.5,158.167 123.5,159.5C 122.07,159.579 120.736,159.246 119.5,158.5C 118.41,159.391 118.41,160.391 119.5,161.5C 115.875,163.193 112.042,164.193 108,164.5C 102.538,163.413 97.3715,161.747 92.5,159.5C 90.1,157.704 88.4333,155.37 87.5,152.5C 86.5409,146.862 86.3742,141.195 87,135.5C 88.8793,133.473 90.046,131.14 90.5,128.5C 91.5,128.5 92.5,128.5 93.5,128.5C 93.6036,126.297 94.2702,124.297 95.5,122.5C 97.4286,122.769 99.0953,122.269 100.5,121C 110.828,120.5 121.161,120.334 131.5,120.5C 131.5,129.833 131.5,139.167 131.5,148.5 Z"/></g>
<g><path style="opacity:1" fill="#3dbb8b" d="M 100.5,119.5 C 111.167,119.5 121.833,119.5 132.5,119.5C 132.827,129.348 132.494,139.014 131.5,148.5C 131.5,139.167 131.5,129.833 131.5,120.5C 121.161,120.334 110.828,120.5 100.5,121C 99.0953,122.269 97.4286,122.769 95.5,122.5C 96.6594,120.75 98.326,119.75 100.5,119.5 Z"/></g>
<g><path style="opacity:1" fill="#4fcb97" d="M 95.5,122.5 C 94.2702,124.297 93.6036,126.297 93.5,128.5C 92.5,128.5 91.5,128.5 90.5,128.5C 90.046,131.14 88.8793,133.473 87,135.5C 86.3742,141.195 86.5409,146.862 87.5,152.5C 83.0764,143.462 83.9097,134.796 90,126.5C 91.451,124.536 93.2843,123.203 95.5,122.5 Z"/></g>
<g><path style="opacity:1" fill="#48cc93" d="M 131.5,149.5 C 125.759,162.871 115.759,168.037 101.5,165C 97.8193,164.128 94.8193,162.294 92.5,159.5C 97.3715,161.747 102.538,163.413 108,164.5C 112.042,164.193 115.875,163.193 119.5,161.5C 118.41,160.391 118.41,159.391 119.5,158.5C 120.736,159.246 122.07,159.579 123.5,159.5C 123.5,158.167 123.5,156.833 123.5,155.5C 124.5,155.5 125.5,155.5 126.5,155.5C 126.343,154.127 126.51,152.793 127,151.5C 127.333,152.167 127.667,152.833 128,153.5C 128.202,151.744 128.702,150.078 129.5,148.5C 130.183,148.863 130.85,149.196 131.5,149.5 Z"/></g>
</svg>
