<?xml version="1.0" encoding="UTF-8"?>
<!DOCTYPE svg PUBLIC "-//W3C//DTD SVG 1.1//EN" "http://www.w3.org/Graphics/SVG/1.1/DTD/svg11.dtd">
<svg xmlns="http://www.w3.org/2000/svg" version="1.1" width="225px" height="225px" style="shape-rendering:geometricPrecision; text-rendering:geometricPrecision; image-rendering:optimizeQuality; fill-rule:evenodd; clip-rule:evenodd" xmlns:xlink="http://www.w3.org/1999/xlink">
<g><path style="opacity:1" fill="#2eb67c" d="M 138.5,102.5 C 139.041,106.295 137.375,108.295 133.5,108.5C 133.709,109.086 134.043,109.586 134.5,110C 131.518,110.498 128.518,110.665 125.5,110.5C 126.058,109.21 127.058,108.377 128.5,108C 126.833,107.667 125.167,107.333 123.5,107C 122.363,104.543 120.863,102.376 119,100.5C 116.967,101.016 116.967,100.35 119,98.5C 119.333,87.1667 119.667,75.8333 120,64.5C 120.333,63.1667 120.667,61.8333 121,60.5C 124.095,59.5754 125.928,57.5754 126.5,54.5C 128.167,54.5 129.833,54.5 131.5,54.5C 130.881,57.3106 129.548,59.8106 127.5,62C 127.63,63.0588 128.13,63.8921 129,64.5C 129.168,74.8494 129.668,85.1827 130.5,95.5C 131.81,84.8021 131.81,74.1354 130.5,63.5C 132.385,62.8027 132.718,61.8027 131.5,60.5C 133.647,59.1647 135.647,59.3314 137.5,61C 135.068,62.0875 135.402,62.5875 138.5,62.5C 137.907,74.5027 137.241,86.5027 136.5,98.5C 136.34,100.355 137.007,101.688 138.5,102.5 Z"/></g>
<g><path style="opacity:1" fill="#38c3ee" d="M 93.5,53.5 C 99.4211,52.8774 104.254,54.8774 108,59.5C 109.425,66.3846 109.925,73.3846 109.5,80.5C 102.609,81.0987 95.942,80.2654 89.5,78C 81.9668,71.0457 81.6334,63.7123 88.5,56C 90.3146,55.2432 91.9812,54.4098 93.5,53.5 Z"/></g>
<g><path style="opacity:1" fill="#2fb47d" d="M 140.5,61.5 C 140.667,75.504 140.5,89.504 140,103.5C 139.617,102.944 139.117,102.611 138.5,102.5C 137.007,101.688 136.34,100.355 136.5,98.5C 137.241,86.5027 137.907,74.5027 138.5,62.5C 135.402,62.5875 135.068,62.0875 137.5,61C 135.647,59.3314 133.647,59.1647 131.5,60.5C 132.718,61.8027 132.385,62.8027 130.5,63.5C 131.81,74.1354 131.81,84.8021 130.5,95.5C 129.668,85.1827 129.168,74.8494 129,64.5C 128.13,63.8921 127.63,63.0588 127.5,62C 129.548,59.8106 130.881,57.3106 131.5,54.5C 129.833,54.5 128.167,54.5 126.5,54.5C 125.928,57.5754 124.095,59.5754 121,60.5C 120.667,61.8333 120.333,63.1667 120,64.5C 119.667,75.8333 119.333,87.1667 119,98.5C 116.967,100.35 116.967,101.016 119,100.5C 120.863,102.376 122.363,104.543 123.5,107C 125.167,107.333 126.833,107.667 128.5,108C 127.058,108.377 126.058,109.21 125.5,110.5C 123.833,109.833 122.167,109.167 120.5,108.5C 118.016,106.88 116.516,104.547 116,101.5C 115.056,88.0969 115.389,74.7636 117,61.5C 121.749,53.3719 128.249,51.5386 136.5,56C 138.464,57.451 139.797,59.2843 140.5,61.5 Z"/></g>
<g><path style="opacity:1" fill="#38c3ee" d="M 62.5,85.5 C 75.8935,85.0755 89.2269,85.5755 102.5,87C 108.97,91.126 111.137,96.9593 109,104.5C 107.108,108.058 104.275,110.558 100.5,112C 87.1667,112.667 73.8333,112.667 60.5,112C 50.8086,107.062 48.6419,99.8953 54,90.5C 56.5308,88.0967 59.3641,86.4301 62.5,85.5 Z"/></g>
<g><path style="opacity:1" fill="#31b07a" d="M 159.5,85.5 C 171.741,86.9898 176.241,93.6564 173,105.5C 171.019,108.745 168.186,110.911 164.5,112C 159.167,112.667 153.833,112.667 148.5,112C 147.226,105.855 147.393,99.6884 149,93.5C 151.271,89.0445 154.771,86.3778 159.5,85.5 Z"/></g>
<g><path style="opacity:1" fill="#3ba277" d="M 140.5,61.5 C 141.222,61.9175 141.722,62.5842 142,63.5C 142.167,69.8333 142.333,76.1667 142.5,82.5C 142.613,89.9081 142.113,97.2414 141,104.5C 137.791,111.015 132.624,113.515 125.5,112C 123.119,111.777 121.453,110.61 120.5,108.5C 122.167,109.167 123.833,109.833 125.5,110.5C 128.518,110.665 131.518,110.498 134.5,110C 134.043,109.586 133.709,109.086 133.5,108.5C 137.375,108.295 139.041,106.295 138.5,102.5C 139.117,102.611 139.617,102.944 140,103.5C 140.5,89.504 140.667,75.504 140.5,61.5 Z"/></g>
<g><path style="opacity:1" fill="#eab131" d="M 124.5,118.5 C 138.171,118.333 151.837,118.5 165.5,119C 174.68,123.564 176.847,130.397 172,139.5C 170.363,141.81 168.196,143.31 165.5,144C 151.833,144.667 138.167,144.667 124.5,144C 115.102,138.802 113.269,131.636 119,122.5C 120.812,121.023 122.645,119.69 124.5,118.5 Z"/></g>
<g><path style="opacity:0.973" fill="#bc3e65" d="M 60.5,119.5 C 65.9753,118.511 71.642,118.178 77.5,118.5C 77.8229,124.69 77.4896,130.69 76.5,136.5C 76.5,130.833 76.5,125.167 76.5,119.5C 71.1667,119.5 65.8333,119.5 60.5,119.5 Z"/></g>
<g><path style="opacity:1" fill="#db1f58" d="M 60.5,119.5 C 65.8333,119.5 71.1667,119.5 76.5,119.5C 76.5,125.167 76.5,130.833 76.5,136.5C 72.3425,144.478 66.0092,146.645 57.5,143C 49.5,135.333 49.5,127.667 57.5,120C 58.448,119.517 59.448,119.351 60.5,119.5 Z"/></g>
<g><path style="opacity:1" fill="#db1f59" d="M 108.5,126.5 C 109.661,140.327 109.827,154.327 109,168.5C 104.611,176.891 98.1113,179.057 89.5,175C 86.8647,173.039 85.0314,170.539 84,167.5C 83.3333,154.167 83.3333,140.833 84,127.5C 88.1519,119.01 94.6519,116.51 103.5,120C 105.79,121.777 107.457,123.944 108.5,126.5 Z"/></g>
<g><path style="opacity:1" fill="#e01d59" d="M 108.5,126.5 C 108.667,140.171 108.5,153.837 108,167.5C 107.477,169.223 106.477,170.556 105,171.5C 103.467,170.305 101.967,170.305 100.5,171.5C 99.483,169.163 97.8163,167.496 95.5,166.5C 96.5,165.167 97.5,163.833 98.5,162.5C 98.0688,161.707 97.7355,160.873 97.5,160C 99.3933,151.978 100.727,143.812 101.5,135.5C 101.476,132.579 101.143,129.746 100.5,127C 103.216,125.788 105.883,125.621 108.5,126.5 Z"/></g>
<g><path style="opacity:1" fill="#e8af33" d="M 115.5,150.5 C 122.257,150.123 128.924,150.623 135.5,152C 144.446,159.325 144.779,166.992 136.5,175C 126.688,179.339 119.855,176.506 116,166.5C 115.501,161.177 115.334,155.844 115.5,150.5 Z"/></g>
</svg>
