<?xml version="1.0" encoding="UTF-8"?>
<!DOCTYPE svg PUBLIC "-//W3C//DTD SVG 1.1//EN" "http://www.w3.org/Graphics/SVG/1.1/DTD/svg11.dtd">
<svg xmlns="http://www.w3.org/2000/svg" version="1.1" width="301px" height="167px" style="shape-rendering:geometricPrecision; text-rendering:geometricPrecision; image-rendering:optimizeQuality; fill-rule:evenodd; clip-rule:evenodd" xmlns:xlink="http://www.w3.org/1999/xlink">
<g><path style="opacity:0.977" fill="#f9f8f9" d="M 160.5,-0.5 C 169.833,-0.5 179.167,-0.5 188.5,-0.5C 198.572,5.71475 208.572,12.2147 218.5,19C 223.083,22.9123 226.917,27.4123 230,32.5C 231.036,38.6415 231.87,44.8081 232.5,51C 232.615,81.7742 232.448,112.608 232,143.5C 230.532,151.639 226.032,157.472 218.5,161C 203.38,162.929 188.214,164.429 173,165.5C 149.544,165.992 126.044,165.492 102.5,164C 100,162.167 97.5,160.333 95,158.5C 88.7065,150.538 82.0398,142.871 75,135.5C 71.863,130.892 69.5297,125.892 68,120.5C 67.2529,97.2461 66.7529,74.0794 66.5,51C 66.8338,40.4922 67.3338,29.9922 68,19.5C 70.4351,12.0657 75.2684,6.89902 82.5,4C 108.655,2.54524 134.655,1.04524 160.5,-0.5 Z"/></g>
<g><path style="opacity:1" fill="#050505" d="M 167.5,9.5 C 174.061,8.91862 180.395,9.75195 186.5,12C 198.282,20.1143 209.782,28.6143 221,37.5C 221.981,73.8934 221.647,110.227 220,146.5C 216.243,149.936 211.743,151.436 206.5,151C 173.846,153.249 141.179,154.916 108.5,156C 106.919,155.293 105.419,154.46 104,153.5C 96.3333,143.5 88.6667,133.5 81,123.5C 80.3333,121.5 79.6667,119.5 79,117.5C 78.0219,85.1059 78.3553,52.7725 80,20.5C 81.1094,18.1853 82.9427,16.6853 85.5,16C 113.019,14.2553 140.352,12.0886 167.5,9.5 Z"/></g>
<g><path style="opacity:1" fill="#f9f9f9" d="M 165.5,17.5 C 170.511,17.3341 175.511,17.5007 180.5,18C 187.89,21.8978 194.556,26.7311 200.5,32.5C 169.545,35.2915 138.545,37.1248 107.5,38C 102.5,34.3333 97.5,30.6667 92.5,27C 91.6634,25.9887 91.33,24.8221 91.5,23.5C 116.336,21.775 141.003,19.775 165.5,17.5 Z"/></g>
<g><path style="opacity:1" fill="#f9f9f9" d="M 198.5,42.5 C 202.182,42.3347 205.848,42.5014 209.5,43C 210,43.5 210.5,44 211,44.5C 211.826,75.8753 211.659,107.209 210.5,138.5C 209.975,139.192 209.308,139.692 208.5,140C 175.864,142.567 143.198,144.234 110.5,145C 109.107,143.829 108.273,142.329 108,140.5C 107.333,111.167 107.333,81.8333 108,52.5C 108.726,49.712 110.56,48.212 113.5,48C 142.011,46.4905 170.344,44.6572 198.5,42.5 Z"/></g>
<g><path style="opacity:1" fill="#030303" d="M 143.5,82.5 C 143.44,81.9569 143.107,81.6236 142.5,81.5C 141.174,95.9945 141.174,110.328 142.5,124.5C 145.167,124.833 147.833,125.167 150.5,125.5C 150.703,127.39 150.037,128.89 148.5,130C 143.934,131.309 139.267,131.809 134.5,131.5C 130.958,131.813 127.625,131.479 124.5,130.5C 124.414,129.504 124.748,128.671 125.5,128C 127.436,127.187 129.436,126.687 131.5,126.5C 131.5,107.5 131.5,88.5 131.5,69.5C 129.167,69.5 126.833,69.5 124.5,69.5C 123.855,66.4532 124.855,64.2865 127.5,63C 135.156,62.0558 142.822,61.7225 150.5,62C 160.056,76.0489 169.389,90.2156 178.5,104.5C 178.56,105.043 178.893,105.376 179.5,105.5C 180.825,92.3394 180.825,79.3394 179.5,66.5C 177.283,65.6314 174.95,65.298 172.5,65.5C 172.393,63.0968 173.393,61.2635 175.5,60C 182.414,59.814 189.247,59.314 196,58.5C 196.494,60.1341 196.66,61.8008 196.5,63.5C 194.194,63.9926 191.861,64.3259 189.5,64.5C 189.833,85.8437 189.5,107.177 188.5,128.5C 183.171,132.093 178.004,132.093 173,128.5C 162.907,113.308 153.073,97.9748 143.5,82.5 Z"/></g>
<g><path style="opacity:1" fill="#838383" d="M 179.5,66.5 C 180.825,79.3394 180.825,92.3394 179.5,105.5C 178.893,105.376 178.56,105.043 178.5,104.5C 179.495,92.011 179.829,79.3443 179.5,66.5 Z"/></g>
<g><path style="opacity:1" fill="#343434" d="M 143.5,82.5 C 142.504,96.3234 142.171,110.323 142.5,124.5C 141.174,110.328 141.174,95.9945 142.5,81.5C 143.107,81.6236 143.44,81.9569 143.5,82.5 Z"/></g>
<g><path style="opacity:1" fill="#999999" d="M 124.5,130.5 C 127.625,131.479 130.958,131.813 134.5,131.5C 130.981,132.808 127.315,132.808 123.5,131.5C 123.624,130.893 123.957,130.56 124.5,130.5 Z"/></g>
</svg>
