<?xml version="1.0" encoding="UTF-8"?>
<!DOCTYPE svg PUBLIC "-//W3C//DTD SVG 1.1//EN" "http://www.w3.org/Graphics/SVG/1.1/DTD/svg11.dtd">
<svg xmlns="http://www.w3.org/2000/svg" version="1.1" width="225px" height="225px" style="shape-rendering:geometricPrecision; text-rendering:geometricPrecision; image-rendering:optimizeQuality; fill-rule:evenodd; clip-rule:evenodd" xmlns:xlink="http://www.w3.org/1999/xlink">
<g><path style="opacity:0.999" fill="#0c0c0c" d="M 151.5,96.5 C 137.754,96.8147 124.088,96.4813 110.5,95.5C 98.3391,84.1723 86.6724,72.339 75.5,60C 77.4899,58.2494 79.8232,57.2494 82.5,57C 105.498,56.5 128.498,56.3334 151.5,56.5C 151.5,69.8333 151.5,83.1667 151.5,96.5 Z"/></g>
<g><path style="opacity:0.69" fill="#7f7f7f" d="M 110.5,95.5 C 124.088,96.4813 137.754,96.8147 151.5,96.5C 139.011,97.4954 126.344,97.8287 113.5,97.5C 99.8333,97.5 86.1667,97.5 72.5,97.5C 85.1667,96.8333 97.8333,96.1667 110.5,95.5 Z"/></g>
<g><path style="opacity:1" fill="#040404" d="M 72.5,97.5 C 86.1667,97.5 99.8333,97.5 113.5,97.5C 125.5,109.833 137.5,122.167 149.5,134.5C 136.833,135.167 124.167,135.833 111.5,136.5C 111.829,149.344 111.495,162.011 110.5,174.5C 97.8682,162.369 85.3682,150.035 73,137.5C 72.5001,124.171 72.3334,110.837 72.5,97.5 Z"/></g>
<g><path style="opacity:0.678" fill="#505050" d="M 149.5,134.5 C 150.289,134.783 150.956,135.283 151.5,136C 138.504,136.5 125.504,136.667 112.5,136.5C 112.167,136.5 111.833,136.5 111.5,136.5C 124.167,135.833 136.833,135.167 149.5,134.5 Z"/></g>
<g><path style="opacity:0.333" fill="#a6a6a6" d="M 111.5,136.5 C 111.833,136.5 112.167,136.5 112.5,136.5C 112.667,149.837 112.5,163.171 112,176.5C 111.283,175.956 110.783,175.289 110.5,174.5C 111.495,162.011 111.829,149.344 111.5,136.5 Z"/></g>
</svg>
