<?xml version="1.0" encoding="UTF-8"?>
<!DOCTYPE svg PUBLIC "-//W3C//DTD SVG 1.1//EN" "http://www.w3.org/Graphics/SVG/1.1/DTD/svg11.dtd">
<svg xmlns="http://www.w3.org/2000/svg" version="1.1" width="318px" height="159px" style="shape-rendering:geometricPrecision; text-rendering:geometricPrecision; image-rendering:optimizeQuality; fill-rule:evenodd; clip-rule:evenodd" xmlns:xlink="http://www.w3.org/1999/xlink">
<g><path style="opacity:1" fill="#181818" d="M 111.5,121.5 C 110.511,98.2416 110.177,74.9082 110.5,51.5C 113.741,49.8793 117.075,48.2126 120.5,46.5C 121.327,42.5408 121.827,38.5408 122,34.5C 126.721,28.7794 131.054,22.7794 135,16.5C 139.692,22.3586 144.192,28.3586 148.5,34.5C 151.86,30.3069 155.027,25.9736 158,21.5C 161.091,26.0137 164.425,30.347 168,34.5C 172.333,28.5 176.667,22.5 181,16.5C 185.721,22.2206 190.054,28.2206 194,34.5C 194.499,38.4862 194.666,42.4862 194.5,46.5C 198.608,47.4691 202.441,49.1358 206,51.5C 206.833,74.8405 206.666,98.1738 205.5,121.5C 189.949,129.109 174.282,136.443 158.5,143.5C 142.627,136.394 126.961,129.061 111.5,121.5 Z M 141.5,33.5 C 137.366,34.4849 133.032,34.8182 128.5,34.5C 132.404,27.0112 136.737,26.6779 141.5,33.5 Z M 187.5,33.5 C 183.167,34.8333 178.833,34.8333 174.5,33.5C 178.833,26.8333 183.167,26.8333 187.5,33.5 Z M 164.5,38.5 C 160.366,39.4849 156.032,39.8182 151.5,39.5C 155.343,31.9278 159.677,31.5945 164.5,38.5 Z M 133.5,39.5 C 133.5,46.8333 133.5,54.1667 133.5,61.5C 131.079,61.1218 128.746,60.4552 126.5,59.5C 126.5,52.8333 126.5,46.1667 126.5,39.5C 128.833,39.5 131.167,39.5 133.5,39.5 Z M 142.5,66.5 C 140.95,65.5592 139.284,64.8925 137.5,64.5C 137.5,56.1667 137.5,47.8333 137.5,39.5C 139.5,39.5 141.5,39.5 143.5,39.5C 143.827,48.6822 143.493,57.6822 142.5,66.5 Z M 178.5,64.5 C 176.289,65.1228 174.289,66.1228 172.5,67.5C 172.5,58.1667 172.5,48.8333 172.5,39.5C 174.5,39.5 176.5,39.5 178.5,39.5C 178.5,47.8333 178.5,56.1667 178.5,64.5 Z M 189.5,59.5 C 187.716,59.8925 186.05,60.5592 184.5,61.5C 183.508,54.3524 183.175,47.0191 183.5,39.5C 185.5,39.5 187.5,39.5 189.5,39.5C 189.5,46.1667 189.5,52.8333 189.5,59.5 Z M 154.5,72.5 C 153.07,71.4625 151.403,70.7959 149.5,70.5C 149.5,61.8333 149.5,53.1667 149.5,44.5C 151.5,44.5 153.5,44.5 155.5,44.5C 155.827,54.015 155.494,63.3483 154.5,72.5 Z M 166.5,70.5 C 164.716,70.8925 163.05,71.5592 161.5,72.5C 160.506,63.3483 160.173,54.015 160.5,44.5C 162.5,44.5 164.5,44.5 166.5,44.5C 166.5,53.1667 166.5,61.8333 166.5,70.5 Z M 120.5,52.5 C 121.833,53.8333 121.833,55.1667 120.5,56.5C 120.158,55.6618 119.492,55.3284 118.5,55.5C 118.167,54.8333 117.833,54.1667 117.5,53.5C 118.609,53.4431 119.609,53.1098 120.5,52.5 Z M 194.5,52.5 C 200.498,53.0015 200.831,54.3348 195.5,56.5C 194.571,55.3112 194.238,53.9778 194.5,52.5 Z M 117.5,61.5 C 130.05,67.358 142.55,73.358 155,79.5C 155.667,98.1667 155.667,116.833 155,135.5C 142.202,129.402 129.369,123.402 116.5,117.5C 116.17,98.6592 116.503,79.9925 117.5,61.5 Z M 198.5,61.5 C 200.487,79.8034 201.154,98.4701 200.5,117.5C 187.376,123.229 174.376,129.229 161.5,135.5C 161.18,116.424 161.513,97.4238 162.5,78.5C 174.811,73.3429 186.811,67.6762 198.5,61.5 Z"/></g>
<g><path style="opacity:0.29" fill="#aeaeae" d="M 141.5,33.5 C 142.043,33.56 142.376,33.8933 142.5,34.5C 140,34.8333 137.5,35.1667 135,35.5C 132.048,35.5655 129.881,35.2322 128.5,34.5C 133.032,34.8182 137.366,34.4849 141.5,33.5 Z"/></g>
<g><path style="opacity:0.29" fill="#aaaaaa" d="M 174.5,33.5 C 178.833,34.8333 183.167,34.8333 187.5,33.5C 188.043,33.56 188.376,33.8933 188.5,34.5C 183.5,35.8333 178.5,35.8333 173.5,34.5C 173.624,33.8933 173.957,33.56 174.5,33.5 Z"/></g>
<g><path style="opacity:0.153" fill="#cbcbcb" d="M 164.5,38.5 C 165.043,38.56 165.376,38.8933 165.5,39.5C 163,39.8333 160.5,40.1667 158,40.5C 155.048,40.5655 152.881,40.2322 151.5,39.5C 156.032,39.8182 160.366,39.4849 164.5,38.5 Z"/></g>
<g><path style="opacity:0.274" fill="#b7b7b7" d="M 189.5,59.5 C 189.5,52.8333 189.5,46.1667 189.5,39.5C 187.5,39.5 185.5,39.5 183.5,39.5C 183.175,47.0191 183.508,54.3524 184.5,61.5C 184.44,62.0431 184.107,62.3764 183.5,62.5C 182.502,54.5277 182.169,46.5277 182.5,38.5C 185.167,38.5 187.833,38.5 190.5,38.5C 190.825,45.6866 190.491,52.6866 189.5,59.5 Z"/></g>
<g><path style="opacity:0.039" fill="#c2c2c2" d="M 178.5,64.5 C 178.5,56.1667 178.5,47.8333 178.5,39.5C 176.5,39.5 174.5,39.5 172.5,39.5C 172.5,48.8333 172.5,58.1667 172.5,67.5C 171.506,58.0144 171.173,48.3478 171.5,38.5C 174.167,38.5 176.833,38.5 179.5,38.5C 179.826,47.3494 179.493,56.0161 178.5,64.5 Z"/></g>
<g><path style="opacity:0.137" fill="#c1c1c1" d="M 142.5,66.5 C 143.493,57.6822 143.827,48.6822 143.5,39.5C 141.5,39.5 139.5,39.5 137.5,39.5C 137.5,47.8333 137.5,56.1667 137.5,64.5C 136.507,56.0161 136.174,47.3494 136.5,38.5C 139.167,38.5 141.833,38.5 144.5,38.5C 144.832,48.1896 144.498,57.8563 143.5,67.5C 142.893,67.3764 142.56,67.0431 142.5,66.5 Z"/></g>
<g><path style="opacity:0.293" fill="#b0b0b0" d="M 166.5,70.5 C 166.5,61.8333 166.5,53.1667 166.5,44.5C 164.5,44.5 162.5,44.5 160.5,44.5C 160.173,54.015 160.506,63.3483 161.5,72.5C 161.44,73.0431 161.107,73.3764 160.5,73.5C 159.501,63.5222 159.168,53.5222 159.5,43.5C 162.167,43.5 164.833,43.5 167.5,43.5C 167.827,52.6822 167.493,61.6822 166.5,70.5 Z"/></g>
<g><path style="opacity:0.714" fill="#666666" d="M 133.5,39.5 C 131.167,39.5 128.833,39.5 126.5,39.5C 126.5,46.1667 126.5,52.8333 126.5,59.5C 125.509,52.6866 125.175,45.6866 125.5,38.5C 128.385,38.1936 131.052,38.5269 133.5,39.5 Z"/></g>
<g><path style="opacity:0.404" fill="#8d8d8d" d="M 120.5,52.5 C 120.56,51.9569 120.893,51.6236 121.5,51.5C 122.833,53.5 122.833,55.5 121.5,57.5C 120.893,57.3764 120.56,57.0431 120.5,56.5C 121.833,55.1667 121.833,53.8333 120.5,52.5 Z"/></g>
<g><path style="opacity:0.043" fill="#c2c2c2" d="M 154.5,72.5 C 155.494,63.3483 155.827,54.015 155.5,44.5C 153.5,44.5 151.5,44.5 149.5,44.5C 149.5,53.1667 149.5,61.8333 149.5,70.5C 148.507,61.6822 148.173,52.6822 148.5,43.5C 151.167,43.5 153.833,43.5 156.5,43.5C 156.832,53.5222 156.499,63.5222 155.5,73.5C 154.893,73.3764 154.56,73.0431 154.5,72.5 Z"/></g>
<g><path style="opacity:0.063" fill="#c8c8c8" d="M 117.5,53.5 C 117.833,54.1667 118.167,54.8333 118.5,55.5C 115.54,54.968 115.207,54.3013 117.5,53.5 Z"/></g>
<g><path style="opacity:0.192" fill="#c5c5c5" d="M 110.5,51.5 C 110.177,74.9082 110.511,98.2416 111.5,121.5C 110.168,110.186 109.501,98.5197 109.5,86.5C 109.5,74.6618 109.833,62.9952 110.5,51.5 Z"/></g>
<g><path style="opacity:0.149" fill="#d7d7d7" d="M 117.5,61.5 C 116.503,79.9925 116.17,98.6592 116.5,117.5C 115.172,98.6625 115.172,79.6625 116.5,60.5C 117.107,60.6236 117.44,60.9569 117.5,61.5 Z"/></g>
<g><path style="opacity:0.279" fill="#b2b2b2" d="M 162.5,78.5 C 161.513,97.4238 161.18,116.424 161.5,135.5C 160.821,126.909 160.487,117.576 160.5,107.5C 160.501,97.4761 161.168,87.8095 162.5,78.5 Z"/></g>
<g><path style="opacity:0.802" fill="#393939" d="M 198.5,61.5 C 199.209,60.596 200.209,60.2627 201.5,60.5C 201.83,79.674 201.497,98.674 200.5,117.5C 201.154,98.4701 200.487,79.8034 198.5,61.5 Z"/></g>
</svg>
