<?xml version="1.0" encoding="UTF-8"?>
<!DOCTYPE svg PUBLIC "-//W3C//DTD SVG 1.1//EN" "http://www.w3.org/Graphics/SVG/1.1/DTD/svg11.dtd">
<svg xmlns="http://www.w3.org/2000/svg" version="1.1" width="499px" height="499px" style="shape-rendering:geometricPrecision; text-rendering:geometricPrecision; image-rendering:optimizeQuality; fill-rule:evenodd; clip-rule:evenodd" xmlns:xlink="http://www.w3.org/1999/xlink">
<g><path style="opacity:0.376" fill="#ffd5d3" d="M 341.5,153.5 C 280.167,153.5 218.833,153.5 157.5,153.5C 157.918,152.778 158.584,152.278 159.5,152C 219.5,151.333 279.5,151.333 339.5,152C 340.416,152.278 341.082,152.778 341.5,153.5 Z"/></g>
<g><path style="opacity:0.867" fill="#f07e78" d="M 157.5,153.5 C 218.833,153.5 280.167,153.5 341.5,153.5C 341.833,153.5 342.167,153.5 342.5,153.5C 342.427,155.027 343.094,156.027 344.5,156.5C 345.167,156.5 345.5,156.833 345.5,157.5C 345.667,184.835 345.5,212.169 345,239.5C 344.722,240.416 344.222,241.082 343.5,241.5C 343.833,213.492 343.5,185.492 342.5,157.5C 341.692,157.192 341.025,156.692 340.5,156C 290.538,154.523 240.538,154.023 190.5,154.5C 179.828,154.333 169.161,154.5 158.5,155C 157.944,155.383 157.611,155.883 157.5,156.5C 156.883,156.611 156.383,156.944 156,157.5C 155.505,159.473 155.338,161.473 155.5,163.5C 154.532,161.393 154.198,159.059 154.5,156.5C 155.833,155.833 156.833,154.833 157.5,153.5 Z"/></g>
<g><path style="opacity:0.337" fill="#ffe3d9" d="M 342.5,153.5 C 343.906,153.973 344.573,154.973 344.5,156.5C 343.094,156.027 342.427,155.027 342.5,153.5 Z"/></g>
<g><path style="opacity:0.165" fill="#ffe2de" d="M 157.5,153.5 C 156.833,154.833 155.833,155.833 154.5,156.5C 154.5,154.5 155.5,153.5 157.5,153.5 Z"/></g>
<g><path style="opacity:1" fill="#fd5955" d="M 226.5,155.5 C 241.871,154.85 256.871,155.516 271.5,157.5C 271.5,163.5 271.5,169.5 271.5,175.5C 276.833,175.5 282.167,175.5 287.5,175.5C 287.5,180.833 287.5,186.167 287.5,191.5C 292.833,191.5 298.167,191.5 303.5,191.5C 303.5,196.833 303.5,202.167 303.5,207.5C 308.833,207.5 314.167,207.5 319.5,207.5C 319.5,212.833 319.5,218.167 319.5,223.5C 324.833,223.5 330.167,223.5 335.5,223.5C 335.666,229.176 335.499,234.843 335,240.5C 333.989,241.337 332.822,241.67 331.5,241.5C 331.5,242.5 331.5,243.5 331.5,244.5C 334.5,244.167 335.833,245.5 335.5,248.5C 334.178,248.33 333.011,248.663 332,249.5C 331.505,251.473 331.338,253.473 331.5,255.5C 326.404,262.019 321.071,268.352 315.5,274.5C 315.5,272.167 315.5,269.833 315.5,267.5C 316.94,266.637 318.274,266.637 319.5,267.5C 320.304,264.56 321.637,261.893 323.5,259.5C 323.081,258.328 322.415,257.328 321.5,256.5C 322.13,253.684 321.464,251.018 319.5,248.5C 314.333,243.5 309.167,238.5 304,233.5C 303.51,232.207 303.343,230.873 303.5,229.5C 300.832,229.334 298.498,228.334 296.5,226.5C 293.811,223.312 290.978,220.312 288,217.5C 285.594,220.152 283.761,219.652 282.5,216C 284.134,215.506 285.801,215.34 287.5,215.5C 287.5,214.5 287.5,213.5 287.5,212.5C 284.833,212.5 282.167,212.5 279.5,212.5C 279.785,210.712 279.452,209.045 278.5,207.5C 276.639,206.472 275.305,204.972 274.5,203C 271.556,202.03 268.556,201.196 265.5,200.5C 266.362,197.854 266.195,195.187 265,192.5C 261.401,190.897 258.401,188.564 256,185.5C 255.51,184.207 255.343,182.873 255.5,181.5C 252.618,181.392 250.285,180.226 248.5,178C 242.675,171.543 236.509,165.376 230,159.5C 227.667,159.833 225.333,160.167 223,160.5C 222.283,159.956 221.783,159.289 221.5,158.5C 223.288,157.64 224.955,156.64 226.5,155.5 Z"/></g>
<g><path style="opacity:1" fill="#fd605c" d="M 190.5,154.5 C 240.538,154.023 290.538,154.523 340.5,156C 341.025,156.692 341.692,157.192 342.5,157.5C 343.5,185.492 343.833,213.492 343.5,241.5C 343.5,241.833 343.5,242.167 343.5,242.5C 342.167,243.5 340.833,244.5 339.5,245.5C 339.36,243.876 340.027,242.71 341.5,242C 341.043,241.586 340.709,241.086 340.5,240.5C 341.769,236.351 342.435,232.018 342.5,227.5C 343.102,220.481 341.935,213.815 339,207.5C 338.667,207.833 338.333,208.167 338,208.5C 337.828,213.202 337.328,217.868 336.5,222.5C 335.503,214.862 335.169,207.196 335.5,199.5C 330.39,197.82 325.057,197.153 319.5,197.5C 319.5,195.5 319.5,193.5 319.5,191.5C 316.833,191.5 314.167,191.5 311.5,191.5C 311.824,187.445 311.491,183.445 310.5,179.5C 307.788,177.286 305.621,174.62 304,171.5C 303.51,172.793 303.343,174.127 303.5,175.5C 300.833,175.5 298.167,175.5 295.5,175.5C 295.5,170.167 295.5,164.833 295.5,159.5C 287.5,158.833 279.5,158.167 271.5,157.5C 256.871,155.516 241.871,154.85 226.5,155.5C 214.322,155.828 202.322,155.495 190.5,154.5 Z"/></g>
<g><path style="opacity:1" fill="#fb4f4d" d="M 157.5,156.5 C 164.241,156.171 170.908,156.671 177.5,158C 176.207,158.49 174.873,158.657 173.5,158.5C 173.426,162.161 174.426,162.828 176.5,160.5C 178.743,159.526 181.076,159.192 183.5,159.5C 184.167,170.167 184.833,170.167 185.5,159.5C 186.833,159.5 188.167,159.5 189.5,159.5C 189.988,162.711 189.321,165.544 187.5,168C 190.359,169.691 191.692,172.191 191.5,175.5C 194.809,175.308 197.309,176.641 199,179.5C 199.494,181.134 199.66,182.801 199.5,184.5C 202.4,184.28 205.067,184.946 207.5,186.5C 206.092,187.243 204.759,188.077 203.5,189C 207.305,190.785 211.305,191.618 215.5,191.5C 215.5,194.833 215.5,198.167 215.5,201.5C 218.247,201.187 220.914,201.52 223.5,202.5C 222.5,203.167 221.5,203.833 220.5,204.5C 224.432,206.33 227.932,208.664 231,211.5C 231.49,212.793 231.657,214.127 231.5,215.5C 234.809,215.308 237.309,216.641 239,219.5C 239.49,220.793 239.657,222.127 239.5,223.5C 240.873,223.343 242.207,223.51 243.5,224C 245.431,226.304 247.764,228.138 250.5,229.5C 251.282,232.076 252.782,234.076 255,235.5C 255.494,237.134 255.66,238.801 255.5,240.5C 258.127,239.908 260.794,239.575 263.5,239.5C 263.62,241.734 263.287,243.901 262.5,246C 265.726,249.112 268.726,252.445 271.5,256C 275.441,255.733 279.441,255.566 283.5,255.5C 283.5,258.167 283.5,260.833 283.5,263.5C 284.833,263.5 286.167,263.5 287.5,263.5C 287.5,266.167 287.5,268.833 287.5,271.5C 290.809,271.308 293.309,272.641 295,275.5C 295.49,274.207 295.657,272.873 295.5,271.5C 296.833,271.5 298.167,271.5 299.5,271.5C 299.5,274.167 299.5,276.833 299.5,279.5C 302.596,278.907 304.929,279.907 306.5,282.5C 305.5,283.167 304.5,283.833 303.5,284.5C 304.127,285.417 304.461,286.417 304.5,287.5C 302.883,288.038 301.216,288.371 299.5,288.5C 299.5,289.833 299.5,291.167 299.5,292.5C 298.127,292.343 296.793,292.51 295.5,293C 295.854,294.626 295.854,296.459 295.5,298.5C 290.745,304.314 285.745,309.98 280.5,315.5C 280.167,315.5 279.833,315.5 279.5,315.5C 279.762,314.022 279.429,312.689 278.5,311.5C 276.981,312.851 275.648,314.351 274.5,316C 273.552,316.483 272.552,316.649 271.5,316.5C 271.551,313.459 272.551,310.792 274.5,308.5C 271.961,304.572 268.294,302.905 263.5,303.5C 262.833,298.833 260.167,296.167 255.5,295.5C 255.875,292.603 255.375,289.937 254,287.5C 253.176,303.326 252.342,318.993 251.5,334.5C 252.155,314.139 251.488,294.139 249.5,274.5C 234.408,258.742 220.408,242.076 207.5,224.5C 205.805,220.805 203.139,218.139 199.5,216.5C 192.107,207.451 184.773,198.451 177.5,189.5C 177.167,189.5 176.833,189.5 176.5,189.5C 176.167,188.833 175.833,188.167 175.5,187.5C 174.888,183.905 172.888,181.572 169.5,180.5C 167.977,177.655 166.977,174.655 166.5,171.5C 164.005,170.801 161.672,169.801 159.5,168.5C 159.158,167.662 158.492,167.328 157.5,167.5C 157.267,165.938 156.6,164.605 155.5,163.5C 155.338,161.473 155.505,159.473 156,157.5C 156.383,156.944 156.883,156.611 157.5,156.5 Z"/></g>
<g><path style="opacity:1" fill="#fc5350" d="M 190.5,154.5 C 202.322,155.495 214.322,155.828 226.5,155.5C 224.955,156.64 223.288,157.64 221.5,158.5C 218.482,158.335 215.482,158.502 212.5,159C 212,159.5 211.5,160 211,160.5C 210,160.167 209,159.833 208,159.5C 207.259,162.112 208.259,163.778 211,164.5C 213.198,168.02 215.365,171.52 217.5,175C 219.833,175.333 222.167,175.667 224.5,176C 226.068,178.304 227.235,180.804 228,183.5C 231.197,185.667 234.03,188.167 236.5,191C 237.448,191.483 238.448,191.649 239.5,191.5C 239.277,194.114 240.444,195.781 243,196.5C 244.7,199.52 246.366,202.52 248,205.5C 252.5,207.333 255.667,210.5 257.5,215C 262.533,216.018 266.533,218.685 269.5,223C 269.167,223.333 268.833,223.667 268.5,224C 269.977,226.148 271.977,227.482 274.5,228C 275.807,231.974 278.474,234.641 282.5,236C 283.833,240 286.5,242.667 290.5,244C 292.026,248.193 294.859,251.026 299,252.5C 299.483,253.448 299.649,254.448 299.5,255.5C 300.833,255.5 302.167,255.5 303.5,255.5C 303.277,258.114 304.444,259.781 307,260.5C 307.93,263.362 309.597,265.695 312,267.5C 312,266.167 312,264.833 312,263.5C 313.032,265.027 314.199,266.36 315.5,267.5C 315.5,269.833 315.5,272.167 315.5,274.5C 312.179,279.152 308.513,283.485 304.5,287.5C 304.461,286.417 304.127,285.417 303.5,284.5C 304.5,283.833 305.5,283.167 306.5,282.5C 304.929,279.907 302.596,278.907 299.5,279.5C 299.5,276.833 299.5,274.167 299.5,271.5C 298.167,271.5 296.833,271.5 295.5,271.5C 295.657,272.873 295.49,274.207 295,275.5C 293.309,272.641 290.809,271.308 287.5,271.5C 287.5,268.833 287.5,266.167 287.5,263.5C 286.167,263.5 284.833,263.5 283.5,263.5C 283.5,260.833 283.5,258.167 283.5,255.5C 279.441,255.566 275.441,255.733 271.5,256C 268.726,252.445 265.726,249.112 262.5,246C 263.287,243.901 263.62,241.734 263.5,239.5C 260.794,239.575 258.127,239.908 255.5,240.5C 255.66,238.801 255.494,237.134 255,235.5C 252.782,234.076 251.282,232.076 250.5,229.5C 247.764,228.138 245.431,226.304 243.5,224C 242.207,223.51 240.873,223.343 239.5,223.5C 239.657,222.127 239.49,220.793 239,219.5C 237.309,216.641 234.809,215.308 231.5,215.5C 231.657,214.127 231.49,212.793 231,211.5C 227.932,208.664 224.432,206.33 220.5,204.5C 221.5,203.833 222.5,203.167 223.5,202.5C 220.914,201.52 218.247,201.187 215.5,201.5C 215.5,198.167 215.5,194.833 215.5,191.5C 211.305,191.618 207.305,190.785 203.5,189C 204.759,188.077 206.092,187.243 207.5,186.5C 205.067,184.946 202.4,184.28 199.5,184.5C 199.66,182.801 199.494,181.134 199,179.5C 197.309,176.641 194.809,175.308 191.5,175.5C 191.692,172.191 190.359,169.691 187.5,168C 189.321,165.544 189.988,162.711 189.5,159.5C 188.167,159.5 186.833,159.5 185.5,159.5C 184.833,170.167 184.167,170.167 183.5,159.5C 181.076,159.192 178.743,159.526 176.5,160.5C 174.426,162.828 173.426,162.161 173.5,158.5C 174.873,158.657 176.207,158.49 177.5,158C 170.908,156.671 164.241,156.171 157.5,156.5C 157.611,155.883 157.944,155.383 158.5,155C 169.161,154.5 179.828,154.333 190.5,154.5 Z"/></g>
<g><path style="opacity:1" fill="#fe5c59" d="M 271.5,157.5 C 279.5,158.167 287.5,158.833 295.5,159.5C 295.5,164.833 295.5,170.167 295.5,175.5C 298.167,175.5 300.833,175.5 303.5,175.5C 303.343,174.127 303.51,172.793 304,171.5C 305.621,174.62 307.788,177.286 310.5,179.5C 311.491,183.445 311.824,187.445 311.5,191.5C 314.167,191.5 316.833,191.5 319.5,191.5C 319.5,193.5 319.5,195.5 319.5,197.5C 325.057,197.153 330.39,197.82 335.5,199.5C 335.169,207.196 335.503,214.862 336.5,222.5C 337.328,217.868 337.828,213.202 338,208.5C 338.333,208.167 338.667,207.833 339,207.5C 341.935,213.815 343.102,220.481 342.5,227.5C 342.435,232.018 341.769,236.351 340.5,240.5C 340.709,241.086 341.043,241.586 341.5,242C 340.027,242.71 339.36,243.876 339.5,245.5C 338.55,248.115 336.883,250.115 334.5,251.5C 333.094,251.973 332.427,252.973 332.5,254.5C 332.5,255.167 332.167,255.5 331.5,255.5C 331.338,253.473 331.505,251.473 332,249.5C 333.011,248.663 334.178,248.33 335.5,248.5C 335.833,245.5 334.5,244.167 331.5,244.5C 331.5,243.5 331.5,242.5 331.5,241.5C 332.822,241.67 333.989,241.337 335,240.5C 335.499,234.843 335.666,229.176 335.5,223.5C 330.167,223.5 324.833,223.5 319.5,223.5C 319.5,218.167 319.5,212.833 319.5,207.5C 314.167,207.5 308.833,207.5 303.5,207.5C 303.5,202.167 303.5,196.833 303.5,191.5C 298.167,191.5 292.833,191.5 287.5,191.5C 287.5,186.167 287.5,180.833 287.5,175.5C 282.167,175.5 276.833,175.5 271.5,175.5C 271.5,169.5 271.5,163.5 271.5,157.5 Z"/></g>
<g><path style="opacity:1" fill="#fd5552" d="M 221.5,158.5 C 221.783,159.289 222.283,159.956 223,160.5C 225.333,160.167 227.667,159.833 230,159.5C 236.509,165.376 242.675,171.543 248.5,178C 250.285,180.226 252.618,181.392 255.5,181.5C 255.343,182.873 255.51,184.207 256,185.5C 258.401,188.564 261.401,190.897 265,192.5C 266.195,195.187 266.362,197.854 265.5,200.5C 268.556,201.196 271.556,202.03 274.5,203C 275.305,204.972 276.639,206.472 278.5,207.5C 279.452,209.045 279.785,210.712 279.5,212.5C 282.167,212.5 284.833,212.5 287.5,212.5C 287.5,213.5 287.5,214.5 287.5,215.5C 285.801,215.34 284.134,215.506 282.5,216C 283.761,219.652 285.594,220.152 288,217.5C 290.978,220.312 293.811,223.312 296.5,226.5C 298.498,228.334 300.832,229.334 303.5,229.5C 303.343,230.873 303.51,232.207 304,233.5C 309.167,238.5 314.333,243.5 319.5,248.5C 321.464,251.018 322.13,253.684 321.5,256.5C 322.415,257.328 323.081,258.328 323.5,259.5C 321.637,261.893 320.304,264.56 319.5,267.5C 318.274,266.637 316.94,266.637 315.5,267.5C 314.199,266.36 313.032,265.027 312,263.5C 312,264.833 312,266.167 312,267.5C 309.597,265.695 307.93,263.362 307,260.5C 304.444,259.781 303.277,258.114 303.5,255.5C 302.167,255.5 300.833,255.5 299.5,255.5C 299.649,254.448 299.483,253.448 299,252.5C 294.859,251.026 292.026,248.193 290.5,244C 286.5,242.667 283.833,240 282.5,236C 278.474,234.641 275.807,231.974 274.5,228C 271.977,227.482 269.977,226.148 268.5,224C 268.833,223.667 269.167,223.333 269.5,223C 266.533,218.685 262.533,216.018 257.5,215C 255.667,210.5 252.5,207.333 248,205.5C 246.366,202.52 244.7,199.52 243,196.5C 240.444,195.781 239.277,194.114 239.5,191.5C 238.448,191.649 237.448,191.483 236.5,191C 234.03,188.167 231.197,185.667 228,183.5C 227.235,180.804 226.068,178.304 224.5,176C 222.167,175.667 219.833,175.333 217.5,175C 215.365,171.52 213.198,168.02 211,164.5C 208.259,163.778 207.259,162.112 208,159.5C 209,159.833 210,160.167 211,160.5C 211.5,160 212,159.5 212.5,159C 215.482,158.502 218.482,158.335 221.5,158.5 Z"/></g>
<g><path style="opacity:0.098" fill="#ffd9d7" d="M 154.5,156.5 C 154.198,159.059 154.532,161.393 155.5,163.5C 156.6,164.605 157.267,165.938 157.5,167.5C 152.96,164.578 151.96,160.911 154.5,156.5 Z"/></g>
<g><path style="opacity:0.365" fill="#fecbc9" d="M 157.5,167.5 C 158.492,167.328 159.158,167.662 159.5,168.5C 160.6,169.605 161.267,170.938 161.5,172.5C 159.457,171.421 158.124,169.754 157.5,167.5 Z"/></g>
<g><path style="opacity:1" fill="#ee5d5c" d="M 159.5,168.5 C 161.672,169.801 164.005,170.801 166.5,171.5C 166.977,174.655 167.977,177.655 169.5,180.5C 168.833,180.167 168.167,179.833 167.5,179.5C 166.19,176.527 164.19,174.193 161.5,172.5C 161.267,170.938 160.6,169.605 159.5,168.5 Z"/></g>
<g><path style="opacity:0.259" fill="#fecacc" d="M 161.5,172.5 C 164.19,174.193 166.19,176.527 167.5,179.5C 164.781,177.781 162.781,175.447 161.5,172.5 Z"/></g>
<g><path style="opacity:0.008" fill="#ffe3e2" d="M 167.5,179.5 C 168.167,179.833 168.833,180.167 169.5,180.5C 170.6,181.605 171.267,182.938 171.5,184.5C 169.413,183.415 168.08,181.749 167.5,179.5 Z"/></g>
<g><path style="opacity:1" fill="#f06664" d="M 169.5,180.5 C 172.888,181.572 174.888,183.905 175.5,187.5C 174.833,187.167 174.167,186.833 173.5,186.5C 173.167,185.5 172.5,184.833 171.5,184.5C 171.267,182.938 170.6,181.605 169.5,180.5 Z"/></g>
<g><path style="opacity:0.004" fill="#ffeeec" d="M 171.5,184.5 C 172.5,184.833 173.167,185.5 173.5,186.5C 172.167,186.5 171.5,185.833 171.5,184.5 Z"/></g>
<g><path style="opacity:0.051" fill="#ffeeea" d="M 173.5,186.5 C 174.167,186.833 174.833,187.167 175.5,187.5C 175.833,188.167 176.167,188.833 176.5,189.5C 170.926,191.453 164.926,192.12 158.5,191.5C 163.985,190.673 169.652,190.173 175.5,190C 174.177,189.184 173.511,188.017 173.5,186.5 Z"/></g>
<g><path style="opacity:0.518" fill="#feccbe" d="M 176.5,189.5 C 176.833,189.5 177.167,189.5 177.5,189.5C 177.5,190.5 177.5,191.5 177.5,192.5C 171.167,192.5 164.833,192.5 158.5,192.5C 158.5,192.167 158.5,191.833 158.5,191.5C 164.926,192.12 170.926,191.453 176.5,189.5 Z"/></g>
<g><path style="opacity:1" fill="#fd9d8c" d="M 177.5,189.5 C 184.773,198.451 192.107,207.451 199.5,216.5C 201.737,219.683 204.403,222.349 207.5,224.5C 220.408,242.076 234.408,258.742 249.5,274.5C 249.5,275.167 249.5,275.833 249.5,276.5C 249.5,289.167 249.5,301.833 249.5,314.5C 227.899,289.551 206.565,264.217 185.5,238.5C 182.893,231.235 178.226,225.901 171.5,222.5C 170.847,221.193 170.18,219.86 169.5,218.5C 166.075,215.399 162.742,212.399 159.5,209.5C 157.392,206.051 155.725,202.384 154.5,198.5C 154.635,195.699 155.968,193.699 158.5,192.5C 164.833,192.5 171.167,192.5 177.5,192.5C 177.5,191.5 177.5,190.5 177.5,189.5 Z"/></g>
<g><path style="opacity:0.49" fill="#fee1dc" d="M 158.5,191.5 C 158.5,191.833 158.5,192.167 158.5,192.5C 155.968,193.699 154.635,195.699 154.5,198.5C 155.725,202.384 157.392,206.051 159.5,209.5C 153.786,205.855 151.953,200.855 154,194.5C 155.129,192.859 156.629,191.859 158.5,191.5 Z"/></g>
<g><path style="opacity:0.235" fill="#fee3d7" d="M 159.5,209.5 C 162.742,212.399 166.075,215.399 169.5,218.5C 170.18,219.86 170.847,221.193 171.5,222.5C 171.5,222.833 171.5,223.167 171.5,223.5C 166.781,219.447 162.781,214.781 159.5,209.5 Z"/></g>
<g><path style="opacity:0.039" fill="#ffeee7" d="M 345.5,157.5 C 346.664,184.997 346.83,212.664 346,240.5C 345.623,241.942 344.79,242.942 343.5,243.5C 343.5,243.167 343.5,242.833 343.5,242.5C 343.5,242.167 343.5,241.833 343.5,241.5C 344.222,241.082 344.722,240.416 345,239.5C 345.5,212.169 345.667,184.835 345.5,157.5 Z"/></g>
<g><path style="opacity:0.969" fill="#f3615a" d="M 199.5,216.5 C 203.139,218.139 205.805,220.805 207.5,224.5C 204.403,222.349 201.737,219.683 199.5,216.5 Z"/></g>
<g><path style="opacity:0.012" fill="#fff0ee" d="M 171.5,223.5 C 173.587,224.585 174.92,226.251 175.5,228.5C 173.413,227.415 172.08,225.749 171.5,223.5 Z"/></g>
<g><path style="opacity:1" fill="#f7a89d" d="M 171.5,223.5 C 171.5,223.167 171.5,222.833 171.5,222.5C 178.226,225.901 182.893,231.235 185.5,238.5C 181.826,235.493 178.493,232.16 175.5,228.5C 174.92,226.251 173.587,224.585 171.5,223.5 Z"/></g>
<g><path style="opacity:1" fill="#fbd0c9" d="M 175.5,228.5 C 178.493,232.16 181.826,235.493 185.5,238.5C 206.565,264.217 227.899,289.551 249.5,314.5C 249.5,324.167 249.5,333.833 249.5,343.5C 248.167,343.5 246.833,343.5 245.5,343.5C 245.5,342.5 245.5,341.5 245.5,340.5C 243.801,340.66 242.134,340.494 240.5,340C 238.83,336.658 236.164,334.491 232.5,333.5C 229.483,328.789 226.483,324.122 223.5,319.5C 219.5,318.344 216.5,315.844 214.5,312C 213.906,311.536 213.239,311.369 212.5,311.5C 211.395,309.287 211.395,307.12 212.5,305C 210.866,304.506 209.199,304.34 207.5,304.5C 207.662,302.473 207.495,300.473 207,298.5C 204.094,297.239 201.261,295.905 198.5,294.5C 197.539,290.544 195.205,287.877 191.5,286.5C 190.269,282.266 187.602,279.266 183.5,277.5C 181.748,275.754 180.415,273.754 179.5,271.5C 179.662,269.473 179.495,267.473 179,265.5C 174.136,261.301 169.97,256.467 166.5,251C 165.552,250.517 164.552,250.351 163.5,250.5C 162.607,246.605 160.274,243.938 156.5,242.5C 153.519,238.723 153.852,235.223 157.5,232C 163.573,230.92 169.573,230.087 175.5,229.5C 175.5,229.167 175.5,228.833 175.5,228.5 Z"/></g>
<g><path style="opacity:0.523" fill="#fef3f1" d="M 175.5,229.5 C 169.573,230.087 163.573,230.92 157.5,232C 153.852,235.223 153.519,238.723 156.5,242.5C 158.025,244.216 159.025,246.216 159.5,248.5C 153.782,244.842 151.949,239.842 154,233.5C 155.214,231.951 156.714,230.785 158.5,230C 164.157,229.501 169.824,229.334 175.5,229.5 Z"/></g>
<g><path style="opacity:0.863" fill="#e57978" d="M 334.5,251.5 C 334.573,253.027 333.906,254.027 332.5,254.5C 332.427,252.973 333.094,251.973 334.5,251.5 Z"/></g>
<g><path style="opacity:1" fill="#f8dcd7" d="M 156.5,242.5 C 160.274,243.938 162.607,246.605 163.5,250.5C 164.552,250.351 165.552,250.517 166.5,251C 169.97,256.467 174.136,261.301 179,265.5C 179.495,267.473 179.662,269.473 179.5,271.5C 172.116,264.45 165.449,256.783 159.5,248.5C 159.025,246.216 158.025,244.216 156.5,242.5 Z"/></g>
<g><path style="opacity:0.161" fill="#fdedeb" d="M 183.5,277.5 C 187.602,279.266 190.269,282.266 191.5,286.5C 188.862,283.526 186.195,280.526 183.5,277.5 Z"/></g>
<g><path style="opacity:0.137" fill="#fed0cf" d="M 343.5,242.5 C 343.5,242.833 343.5,243.167 343.5,243.5C 330.887,259.779 317.554,275.446 303.5,290.5C 303.557,289.391 303.89,288.391 304.5,287.5C 308.513,283.485 312.179,279.152 315.5,274.5C 321.071,268.352 326.404,262.019 331.5,255.5C 332.167,255.5 332.5,255.167 332.5,254.5C 333.906,254.027 334.573,253.027 334.5,251.5C 336.883,250.115 338.55,248.115 339.5,245.5C 340.833,244.5 342.167,243.5 343.5,242.5 Z"/></g>
<g><path style="opacity:1" fill="#fc4846" d="M 279.5,315.5 C 278.448,315.351 277.448,315.517 276.5,316C 274.406,319.606 272.073,323.106 269.5,326.5C 268.205,327.098 266.872,327.598 265.5,328C 266.337,329.011 266.67,330.178 266.5,331.5C 265.5,331.5 264.5,331.5 263.5,331.5C 262.379,333.107 261.712,335.44 261.5,338.5C 259.533,338.739 257.699,338.406 256,337.5C 255.51,338.793 255.343,340.127 255.5,341.5C 254.167,341.5 252.833,341.5 251.5,341.5C 251.5,339.167 251.5,336.833 251.5,334.5C 252.342,318.993 253.176,303.326 254,287.5C 255.375,289.937 255.875,292.603 255.5,295.5C 260.167,296.167 262.833,298.833 263.5,303.5C 268.294,302.905 271.961,304.572 274.5,308.5C 272.551,310.792 271.551,313.459 271.5,316.5C 272.552,316.649 273.552,316.483 274.5,316C 275.648,314.351 276.981,312.851 278.5,311.5C 279.429,312.689 279.762,314.022 279.5,315.5 Z"/></g>
<g><path style="opacity:0.631" fill="#fceae5" d="M 191.5,286.5 C 195.205,287.877 197.539,290.544 198.5,294.5C 195.705,292.249 193.372,289.582 191.5,286.5 Z"/></g>
<g><path style="opacity:1" fill="#ef5c5a" d="M 304.5,287.5 C 303.89,288.391 303.557,289.391 303.5,290.5C 300.521,292.812 297.854,295.479 295.5,298.5C 295.854,296.459 295.854,294.626 295.5,293C 296.793,292.51 298.127,292.343 299.5,292.5C 299.5,291.167 299.5,289.833 299.5,288.5C 301.216,288.371 302.883,288.038 304.5,287.5 Z"/></g>
<g><path style="opacity:1" fill="#f9e3df" d="M 198.5,294.5 C 201.261,295.905 204.094,297.239 207,298.5C 207.495,300.473 207.662,302.473 207.5,304.5C 209.199,304.34 210.866,304.506 212.5,305C 211.395,307.12 211.395,309.287 212.5,311.5C 207.127,306.425 202.461,300.759 198.5,294.5 Z"/></g>
<g><path style="opacity:0.071" fill="#fed2cf" d="M 303.5,290.5 C 293.59,303.288 283.424,315.955 273,328.5C 270.63,331.039 268.13,333.372 265.5,335.5C 270.5,328.833 275.5,322.167 280.5,315.5C 285.745,309.98 290.745,304.314 295.5,298.5C 297.854,295.479 300.521,292.812 303.5,290.5 Z"/></g>
<g><path style="opacity:1" fill="#f15555" d="M 279.5,315.5 C 279.833,315.5 280.167,315.5 280.5,315.5C 275.5,322.167 270.5,328.833 265.5,335.5C 264.5,335.833 263.833,336.5 263.5,337.5C 262.833,337.833 262.167,338.167 261.5,338.5C 261.712,335.44 262.379,333.107 263.5,331.5C 264.5,331.5 265.5,331.5 266.5,331.5C 266.67,330.178 266.337,329.011 265.5,328C 266.872,327.598 268.205,327.098 269.5,326.5C 272.073,323.106 274.406,319.606 276.5,316C 277.448,315.517 278.448,315.351 279.5,315.5 Z"/></g>
<g><path style="opacity:0.561" fill="#fbe8e3" d="M 212.5,311.5 C 213.239,311.369 213.906,311.536 214.5,312C 216.5,315.844 219.5,318.344 223.5,319.5C 226.483,324.122 229.483,328.789 232.5,333.5C 236.164,334.491 238.83,336.658 240.5,340C 242.134,340.494 243.801,340.66 245.5,340.5C 245.5,341.5 245.5,342.5 245.5,343.5C 246.833,343.5 248.167,343.5 249.5,343.5C 249.842,344.338 250.508,344.672 251.5,344.5C 247.489,345.673 243.489,345.173 239.5,343C 230.29,332.628 221.29,322.128 212.5,311.5 Z"/></g>
<g><path style="opacity:0.776" fill="#fb7e7b" d="M 249.5,276.5 C 250.497,298.327 250.831,320.327 250.5,342.5C 252.167,342.5 253.833,342.5 255.5,342.5C 253.735,343.461 251.735,343.795 249.5,343.5C 249.5,333.833 249.5,324.167 249.5,314.5C 249.5,301.833 249.5,289.167 249.5,276.5 Z"/></g>
<g><path style="opacity:0.004" fill="#ffe2e3" d="M 265.5,335.5 C 265.5,336.833 264.833,337.5 263.5,337.5C 263.833,336.5 264.5,335.833 265.5,335.5 Z"/></g>
<g><path style="opacity:1" fill="#ec4d4d" d="M 249.5,274.5 C 251.488,294.139 252.155,314.139 251.5,334.5C 251.5,336.833 251.5,339.167 251.5,341.5C 252.833,341.5 254.167,341.5 255.5,341.5C 255.343,340.127 255.51,338.793 256,337.5C 257.699,338.406 259.533,338.739 261.5,338.5C 259.795,340.192 257.795,341.525 255.5,342.5C 253.833,342.5 252.167,342.5 250.5,342.5C 250.831,320.327 250.497,298.327 249.5,276.5C 249.5,275.833 249.5,275.167 249.5,274.5 Z"/></g>
<g><path style="opacity:0.22" fill="#fcc8c2" d="M 263.5,337.5 C 261.112,342.368 257.112,344.701 251.5,344.5C 250.508,344.672 249.842,344.338 249.5,343.5C 251.735,343.795 253.735,343.461 255.5,342.5C 257.795,341.525 259.795,340.192 261.5,338.5C 262.167,338.167 262.833,337.833 263.5,337.5 Z"/></g>
</svg>
