<?xml version="1.0" encoding="UTF-8"?>
<!DOCTYPE svg PUBLIC "-//W3C//DTD SVG 1.1//EN" "http://www.w3.org/Graphics/SVG/1.1/DTD/svg11.dtd">
<svg xmlns="http://www.w3.org/2000/svg" version="1.1" width="217px" height="232px" style="shape-rendering:geometricPrecision; text-rendering:geometricPrecision; image-rendering:optimizeQuality; fill-rule:evenodd; clip-rule:evenodd" xmlns:xlink="http://www.w3.org/1999/xlink">
<g><path style="opacity:0.054" fill="#d0d0d0" d="M 100.5,36.5 C 93.5,36.5 86.5,36.5 79.5,36.5C 79.5,37.5 79.5,38.5 79.5,39.5C 78.0462,38.4797 77.7129,37.313 78.5,36C 86.0118,35.1782 93.3451,35.3448 100.5,36.5 Z"/></g>
<g><path style="opacity:0.997" fill="#343434" d="M 138.5,81.5 C 139.833,80.1667 139.833,78.8333 138.5,77.5C 138.5,76.8333 138.833,76.5 139.5,76.5C 140.833,76.1667 140.833,75.8333 139.5,75.5C 139.658,73.1789 140.658,71.3455 142.5,70C 141.686,67.6204 140.02,65.4538 137.5,63.5C 138.833,63.1667 138.833,62.8333 137.5,62.5C 132.813,53.6356 127.48,45.1356 121.5,37C 125.153,35.8657 128.986,35.3657 133,35.5C 136.5,35.6667 140,35.8333 143.5,36C 158.06,43.4382 172.06,51.6049 185.5,60.5C 171.231,102.639 157.565,144.972 144.5,187.5C 136.833,187.5 129.167,187.5 121.5,187.5C 127.383,152.201 133.05,116.868 138.5,81.5 Z"/></g>
<g><path style="opacity:0.997" fill="#333333" d="M 63.5,42.5 C 64.1667,45.1667 65.8333,46.8333 68.5,47.5C 77.1667,55.5 85.5,63.8333 93.5,72.5C 92.7784,72.9175 92.2784,73.5842 92,74.5C 91.2825,73.5494 90.4491,73.3828 89.5,74C 90.5,75 91.5,76 92.5,77C 88.488,77.5703 87.988,78.737 91,80.5C 91.1953,82.2072 91.1953,83.8739 91,85.5C 92.5325,83.4376 94.5325,82.1043 97,81.5C 97.765,83.0657 97.5983,84.3991 96.5,85.5C 95.6618,85.8417 95.3284,86.5084 95.5,87.5C 82.8647,120.39 70.198,153.39 57.5,186.5C 49.8622,187.497 42.1955,187.831 34.5,187.5C 40.5116,154.275 46.845,121.108 53.5,88C 47.4405,73.1555 41.7738,58.1555 36.5,43C 37.4574,40.4243 39.124,38.4243 41.5,37C 50.4583,33.3457 57.7917,35.1791 63.5,42.5 Z"/></g>
<g><path style="opacity:0.997" fill="#333333" d="M 100.5,36.5 C 112.851,45.1918 125.185,53.8585 137.5,62.5C 137.5,62.8333 137.5,63.1667 137.5,63.5C 140.02,65.4538 141.686,67.6204 142.5,70C 140.658,71.3455 139.658,73.1789 139.5,75.5C 139.5,75.8333 139.5,76.1667 139.5,76.5C 138.833,76.5 138.5,76.8333 138.5,77.5C 138.5,78.8333 138.5,80.1667 138.5,81.5C 130.163,104.178 121.83,126.844 113.5,149.5C 112.691,150.469 111.691,151.302 110.5,152C 111.337,153.011 111.67,154.178 111.5,155.5C 108.329,166.18 104.662,176.68 100.5,187C 92.8406,187.5 85.1739,187.666 77.5,187.5C 83.8855,154.239 89.8855,120.906 95.5,87.5C 96.3382,87.1583 96.6716,86.4916 96.5,85.5C 97.5983,84.3991 97.765,83.0657 97,81.5C 94.5325,82.1043 92.5325,83.4376 91,85.5C 91.1953,83.8739 91.1953,82.2072 91,80.5C 87.988,78.737 88.488,77.5703 92.5,77C 91.5,76 90.5,75 89.5,74C 90.4491,73.3828 91.2825,73.5494 92,74.5C 92.2784,73.5842 92.7784,72.9175 93.5,72.5C 94.2389,72.631 94.9056,72.4643 95.5,72C 89.7556,61.3448 84.4223,50.5115 79.5,39.5C 79.5,38.5 79.5,37.5 79.5,36.5C 86.5,36.5 93.5,36.5 100.5,36.5 Z"/></g>
<g><path style="opacity:0.353" fill="#9c9c9c" d="M 63.5,42.5 C 65.5,43.8333 67.1667,45.5 68.5,47.5C 65.8333,46.8333 64.1667,45.1667 63.5,42.5 Z"/></g>
<g><path style="opacity:0.702" fill="#797979" d="M 113.5,149.5 C 113.405,151.786 112.738,153.786 111.5,155.5C 111.67,154.178 111.337,153.011 110.5,152C 111.691,151.302 112.691,150.469 113.5,149.5 Z"/></g>
</svg>
